<svg version="1.2" xmlns="http://www.w3.org/2000/svg" viewBox="0 0 2351 3000" width="2351" height="3000">
	<title>vecteezy_regular-fit-short-sleeve-t-shirt-technical-sketch-fashion_6188997-ai</title>
	<style>
		.s0 { fill: #ffffff } 
		.s1 { fill: #000000 } 
		.s2 { fill: #f2f2f2 } 
	</style>
	<g id="_Artboards_">
	</g>
	<g id="Layer 1">
		<g id="&lt;Group&gt;">
			<g id="&lt;Group&gt;">
				<g id="&lt;Group&gt;">
					<path id="&lt;Path&gt;" class="s0" d="m1793.3 532.7l45.6-27.9 475.9 498.7-334.1 331.7-158.3-115.2c0 0-60.7-229.1-65.8-387.4-5-158.2 36.7-299.9 36.7-299.9z"/>
					<path id="&lt;Path&gt;" class="s1" d="m1793.3 532.7l2.7 4.3 42-25.7 469.7 492.1-327.5 325.1-154.8-112.6-3 4.1 4.9-1.3q0 0-0.1-0.7c-1.8-6.7-17-65-32.3-140.6-7.7-37.9-15.4-80.1-21.4-122.3-6.1-42.3-10.6-84.6-11.8-122.6q-0.4-13.5-0.4-26.8c0-73.1 9.2-141.1 18.4-190.7 4.7-24.9 9.3-45.1 12.7-59.1 1.8-7.1 3.2-12.5 4.2-16.2q0.8-2.8 1.2-4.2 0.2-0.7 0.3-1.1 0-0.1 0.1-0.2v-0.1l-4.9-1.4 2.7 4.3-2.7-4.3-4.8-1.5c-0.1 0.2-9.4 31.8-18.7 81.9-9.3 50.1-18.7 118.7-18.7 192.6q0 13.5 0.5 27.1c1.2 39.8 6 84 12.4 127.8 19.3 131.6 53.5 260.6 53.5 260.7 0.3 1.1 1 2.1 2 2.8l158.2 115.2c2 1.4 4.8 1.2 6.5-0.5l334.2-331.7c2-1.9 2-5.1 0.1-7.1l-475.9-498.7c-1.7-1.7-4.3-2.1-6.3-0.8l-45.6 27.8c-1.1 0.7-1.9 1.7-2.2 2.9z"/>
					<path id="&lt;Compound Path&gt;" class="s1" d="m1951.1 1294.5l-7.7 7.7 2.5 2.6 7.8-7.7zm11.7-11.5l-7.8 7.7 2.5 2.6 7.8-7.7zm11.7-11.5l-7.8 7.7 2.6 2.5 7.7-7.6zm11.7-11.6l-7.8 7.7 2.6 2.6 7.8-7.7zm11.6-11.5l-7.8 7.7 2.6 2.6 7.8-7.7zm11.6-11.5l-7.7 7.7 2.5 2.5 7.8-7.6zm11.7-11.6l-7.8 7.7 2.5 2.6 7.8-7.7zm11.7-11.5l-7.8 7.7 2.6 2.6 7.7-7.7zm11.7-11.5l-7.8 7.6 2.6 2.6 7.8-7.6zm11.6-11.6l-7.8 7.7 2.6 2.6 7.8-7.7zm11.6-11.5l-7.7 7.7 2.5 2.6 7.8-7.7zm11.6-11.5l-7.7 7.6 2.5 2.6 7.8-7.7zm11.7-11.5l-7.8 7.7 2.6 2.6 7.7-7.7zm11.7-11.5l-7.8 7.7 2.6 2.6 7.7-7.7zm11.7-11.6l-7.8 7.7 2.6 2.6 7.8-7.7zm11.6-11.5l-7.7 7.7 2.5 2.6 7.8-7.7zm11.6-11.5l-7.7 7.7 2.5 2.5 7.8-7.6zm11.7-11.6l-7.8 7.7 2.6 2.6 7.7-7.7zm11.7-11.5l-7.8 7.7 2.6 2.6 7.7-7.7zm11.7-11.5l-7.8 7.7 2.6 2.5 7.8-7.6zm11.6-11.6l-7.8 7.7 2.6 2.6 7.8-7.7zm11.6-11.5l-7.7 7.7 2.5 2.6 7.8-7.7zm11.7-11.5l-7.8 7.6 2.5 2.6 7.8-7.6zm11.7-11.6l-7.8 7.7 2.6 2.6 7.7-7.7zm11.7-11.5l-7.8 7.7 2.6 2.6 7.8-7.7zm11.6-11.5l-7.8 7.6 2.6 2.6 7.8-7.7zm11.6-11.5l-7.7 7.7 2.5 2.6 7.8-7.7zm11.7-11.5l-7.8 7.7 2.5 2.6 7.8-7.7zm11.7-11.6l-7.8 7.7 2.6 2.6 7.7-7.7z"/>
					<path id="&lt;Compound Path&gt;" class="s1" d="m1943.2 1286l-7.7 7.7 2.5 2.6 7.8-7.7zm11.7-11.5l-7.8 7.7 2.6 2.6 7.7-7.7zm11.7-11.5l-7.8 7.7 2.6 2.5 7.7-7.6zm11.7-11.6l-7.8 7.7 2.6 2.6 7.8-7.7zm11.6-11.5l-7.7 7.7 2.5 2.6 7.8-7.7zm11.6-11.5l-7.7 7.7 2.5 2.5 7.8-7.6zm11.7-11.6l-7.8 7.7 2.6 2.6 7.7-7.7zm11.7-11.5l-7.8 7.7 2.6 2.6 7.7-7.7zm11.7-11.5l-7.8 7.6 2.6 2.6 7.8-7.6zm11.6-11.6l-7.8 7.7 2.6 2.6 7.8-7.7zm11.6-11.5l-7.7 7.7 2.5 2.6 7.8-7.7zm11.7-11.5l-7.8 7.6 2.5 2.6 7.8-7.7zm11.7-11.5l-7.8 7.7 2.6 2.6 7.7-7.7zm11.7-11.5l-7.8 7.7 2.6 2.6 7.8-7.7zm11.6-11.6l-7.8 7.7 2.6 2.6 7.8-7.7zm11.6-11.5l-7.7 7.7 2.5 2.6 7.8-7.7zm11.7-11.5l-7.8 7.7 2.5 2.5 7.8-7.6zm11.7-11.6l-7.8 7.7 2.6 2.6 7.7-7.7zm11.7-11.5l-7.8 7.7 2.6 2.6 7.8-7.7zm11.6-11.5l-7.8 7.7 2.6 2.5 7.8-7.6zm11.6-11.6l-7.7 7.7 2.5 2.6 7.8-7.7zm11.6-11.5l-7.7 7.7 2.5 2.6 7.8-7.7zm11.7-11.5l-7.8 7.6 2.6 2.6 7.7-7.6zm11.7-11.6l-7.8 7.7 2.6 2.6 7.7-7.7zm11.7-11.5l-7.8 7.7 2.6 2.6 7.8-7.7zm11.6-11.5l-7.7 7.6 2.5 2.6 7.8-7.7zm11.6-11.5l-7.7 7.7 2.5 2.6 7.8-7.7zm11.7-11.5l-7.8 7.7 2.6 2.6 7.7-7.7zm11.7-11.6l-7.8 7.7 2.6 2.6 7.7-7.7z"/>
				</g>
				<g id="&lt;Group&gt;">
					<path id="&lt;Path&gt;" class="s0" d="m536.4 518.7l-32.9-8-478.5 492.8 332.9 330.4 170.9-126.6c0 0 94.9-472.1 7.6-688.6z"/>
					<path id="&lt;Path&gt;" class="s1" d="m536.4 518.7l1.2-4.9-35.7-8.7-484 498.5 339.6 336.9 175.9-130.3 0.4-1.9c0-0.1 11.1-55.5 22.3-137.2 11.2-81.6 22.3-189.5 22.3-294.4 0-48.3-2.3-95.9-8.2-140.1-5.8-44.3-15.1-85.1-29.1-119.8l-1-2.4-2.5-0.6-1.2 4.9-4.7 1.9c13.6 33.6 22.7 73.6 28.5 117.3 5.7 43.6 8.1 90.9 8.1 138.8 0 104.2-11.1 211.7-22.2 293-5.6 40.7-11.1 74.9-15.3 98.9-2.1 12-3.8 21.4-5 27.9q-1 4.8-1.5 7.3-0.2 1.3-0.3 1.9-0.1 0.6-0.1 0.6l4.9 1-3-4.1-167.4 124-326.2-323.7 472.9-487.2 30.1 7.4 1.2-5-4.7 1.9z"/>
					<path id="&lt;Compound Path&gt;" class="s1" d="m380.8 1297.1l7.7 7.7 2.6-2.6-7.8-7.7zm-11.6-11.5l7.7 7.7 2.6-2.6-7.8-7.7zm-11.6-11.5l7.7 7.7 2.6-2.6-7.8-7.7zm-11.6-11.5l7.7 7.7 2.6-2.6-7.8-7.7zm-11.6-11.5l7.7 7.7 2.6-2.6-7.8-7.7zm-11.6-11.5l7.7 7.6 2.6-2.6-7.8-7.6zm-11.6-11.6l7.7 7.7 2.6-2.6-7.8-7.7zm-11.6-11.5l7.7 7.7 2.6-2.6-7.8-7.7zm-11.6-11.5l7.8 7.7 2.5-2.6-7.8-7.7zm-11.6-11.5l7.8 7.7 2.5-2.6-7.8-7.7zm-11.6-11.5l7.8 7.7 2.5-2.6-7.8-7.7zm-11.6-11.5l7.8 7.6 2.5-2.6-7.8-7.6zm-11.6-11.6l7.8 7.7 2.5-2.6-7.7-7.7zm-11.7-11.5l7.8 7.7 2.5-2.6-7.7-7.7zm-11.7-11.5l7.8 7.7 2.5-2.6-7.7-7.7zm-11.7-11.5l7.8 7.7 2.5-2.6-7.7-7.7zm-11.7-11.5l7.8 7.7 2.5-2.6-7.7-7.7zm-11.7-11.5l7.8 7.6 2.5-2.6-7.7-7.6zm-11.7-11.6l7.8 7.7 2.5-2.6-7.7-7.7zm-11.7-11.5l7.8 7.7 2.5-2.6-7.7-7.7zm-11.7-11.5l7.8 7.7 2.6-2.6-7.8-7.7zm-11.7-11.5l7.8 7.7 2.6-2.6-7.8-7.7zm-11.7-11.5l7.8 7.7 2.6-2.6-7.8-7.7zm-11.7-11.6l7.8 7.7 2.6-2.6-7.8-7.6zm-11.7-11.6l7.8 7.7 2.6-2.6-7.8-7.7zm-11.7-11.5l7.8 7.7 2.6-2.6-7.8-7.7zm-11.7-11.5l7.8 7.7 2.6-2.6-7.8-7.7zm-11.7-11.5l7.8 7.7 2.6-2.6-7.8-7.7zm-11.7-11.5l7.8 7.6 2.6-2.5-7.8-7.7z"/>
					<path id="&lt;Compound Path&gt;" class="s1" d="m388.6 1288.6l7.8 7.7 2.6-2.6-7.8-7.7zm-11.7-11.5l7.8 7.7 2.6-2.6-7.8-7.7zm-11.6-11.5l7.7 7.7 2.6-2.6-7.8-7.7zm-11.6-11.5l7.7 7.7 2.6-2.6-7.8-7.7zm-11.6-11.5l7.7 7.7 2.6-2.6-7.8-7.7zm-11.6-11.5l7.7 7.6 2.6-2.6-7.8-7.6zm-11.6-11.6l7.7 7.7 2.6-2.6-7.8-7.7zm-11.6-11.5l7.7 7.7 2.6-2.6-7.8-7.7zm-11.6-11.5l7.7 7.7 2.6-2.6-7.8-7.7zm-11.6-11.5l7.7 7.7 2.6-2.6-7.8-7.7zm-11.6-11.5l7.8 7.7 2.5-2.6-7.8-7.7zm-11.6-11.5l7.8 7.6 2.5-2.6-7.8-7.6zm-11.6-11.6l7.8 7.7 2.5-2.6-7.8-7.7zm-11.6-11.5l7.8 7.7 2.5-2.6-7.8-7.7zm-11.6-11.5l7.8 7.7 2.5-2.6-7.7-7.7zm-11.7-11.5l7.8 7.7 2.5-2.6-7.7-7.7zm-11.7-11.5l7.8 7.7 2.5-2.6-7.7-7.7zm-11.7-11.6l7.8 7.7 2.5-2.6-7.7-7.6zm-11.7-11.6l7.8 7.7 2.5-2.6-7.7-7.7zm-11.7-11.5l7.8 7.7 2.5-2.6-7.7-7.7zm-11.7-11.5l7.8 7.7 2.5-2.6-7.7-7.7zm-11.7-11.5l7.8 7.7 2.5-2.6-7.7-7.7zm-11.7-11.5l7.8 7.6 2.6-2.5-7.8-7.7zm-11.7-11.6l7.8 7.7 2.6-2.6-7.8-7.6zm-11.7-11.6l7.8 7.7 2.6-2.6-7.8-7.7zm-11.7-11.5l7.8 7.7 2.6-2.6-7.8-7.7zm-11.7-11.5l7.8 7.7 2.6-2.6-7.8-7.7zm-11.7-11.5l7.8 7.7 2.6-2.6-7.8-7.7zm-11.7-11.5l7.8 7.6 2.6-2.5-7.8-7.7z"/>
				</g>
				<g id="&lt;Group&gt;">
					<path id="&lt;Path&gt;" class="s0" d="m1474.3 371.9l30-2.1 334.6 135c0 0-127 296.2-0.4 723.2 0 481 16.8 1414.3 16.8 1414.3 0 0-477.6 37.1-1370.4-1.7 0-759.5 16.9-1409.2 16.9-1409.2 0 0 113.1-420.3 1.7-720.7 286.9-124.9 329.1-146.8 329.1-146.8 0 0 148.5 38.8 339.2 42.2 190.7 3.4 302.6-34.2 302.6-34.2z"/>
					<path id="&lt;Path&gt;" class="s1" d="m1474.3 371.9l0.4 5.1 28.8-2.1 333.5 134.6 1.9-4.7-4.7-2c-0.2 0.5-56.9 133-56.9 348.6 0 107.5 14.1 235.5 56.3 378l4.9-1.4h-5.1c0 481.1 16.9 1414.4 16.9 1414.4l5-0.1-0.3-5.1q0 0-0.6 0.1c-12.4 0.9-217.5 15.9-599.3 15.9-206.1 0-463.5-4.3-769.9-17.7l-0.3 5.1h5.1c0-379.7 4.2-732 8.4-989.3 2.1-128.7 4.3-233.7 5.8-306.4 0.8-36.4 1.5-64.8 1.9-84 0.3-9.6 0.5-17 0.6-21.9 0.1-5 0.2-7.5 0.2-7.5l-5.1-0.1 4.9 1.3c0-0.1 12.8-47.4 25.5-121.7 12.7-74.2 25.4-175.3 25.4-283.1 0-106.3-12.3-219-49.4-318.9l-4.7 1.7 2 4.7c143.5-62.5 225.8-99.2 272.2-120.3 46.5-21.1 57.1-26.6 57.2-26.7l-2.3-4.5-1.3 4.9c0.3 0 149.1 38.9 340.4 42.3q12.4 0.3 24.3 0.3c176.6 0 279.5-34.6 280-34.7l-1.7-4.8 0.4 5.1-0.4-5.1-1.6-4.8c-1.1 0.4-102.8 34.1-276.7 34.1q-11.8 0-24.1-0.2c-95-1.7-179.6-12.2-240.4-22.3-30.4-5-54.8-10-71.6-13.6-8.4-1.9-15-3.4-19.4-4.5q-3.3-0.8-5-1.2-0.8-0.2-1.2-0.3-0.2-0.1-0.3-0.1h-0.1c-1.2-0.3-2.5-0.2-3.6 0.4-0.2 0.1-11.3 5.8-57.8 27-46.6 21.1-128.7 57.7-271 119.7-2.5 1-3.7 3.9-2.7 6.4 36.4 98.3 48.7 209.9 48.7 315.4 0 107-12.6 207.6-25.3 281.4-6.3 36.9-12.7 67.1-17.4 88.1-2.4 10.5-4.3 18.7-5.7 24.2q-1.1 4.2-1.6 6.3-0.3 1.1-0.4 1.6-0.1 0.3-0.1 0.4-0.1 0.2-0.1 0.1c-0.1 0.5-0.1 0.8-0.1 1.2-0.1 0.1-16.9 649.9-16.9 1409.4 0 2.7 2.1 4.9 4.8 5.1 306.6 13.3 564.2 17.7 770.4 17.7 394.4 0 600.5-16.1 600.6-16.1 2.7-0.2 4.8-2.4 4.7-5.1 0 0-0.1-3.7-0.2-10.6-1.8-104.3-16.7-952.8-16.7-1403.6 0-0.5 0-1-0.2-1.4-41.9-141.6-55.9-268.6-55.9-375.2 0-106.9 14.1-193.1 28.1-252.6 7.1-29.8 14.1-52.8 19.4-68.4 2.6-7.8 4.8-13.7 6.3-17.7q1.1-3 1.7-4.4 0.4-0.8 0.5-1.2 0.1-0.1 0.1-0.2v-0.1c0.6-1.2 0.6-2.7 0.1-3.9-0.5-1.3-1.6-2.3-2.8-2.8l-334.6-135q-1.1-0.4-2.2-0.4l-30 2.2q-0.6 0-1.3 0.2z"/>
					<path id="&lt;Compound Path&gt;" class="s1" d="m495.3 2585.3q-5.1-0.2-10.3-0.4l-0.1 3.6q5.1 0.2 10.3 0.5l0.1-3.7zm16.4 0.7q-5.5-0.2-10.9-0.4l-0.2 3.6q5.5 0.2 10.9 0.5l0.2-3.7zm16.4 0.7q-5.5-0.2-11-0.4l-0.1 3.6q5.5 0.2 10.9 0.4zm16.4 0.7q-5.5-0.2-10.9-0.4l-0.2 3.6q5.5 0.2 10.9 0.5l0.2-3.7zm16.4 0.7q-5.5-0.2-11-0.5l-0.1 3.7q5.5 0.2 10.9 0.4l0.2-3.6zm16.3 0.6q-5.4-0.2-10.9-0.4l-0.1 3.6q5.5 0.3 10.9 0.5l0.1-3.7zm16.4 0.7q-5.4-0.3-10.9-0.5l-0.1 3.7q5.4 0.2 10.9 0.4zm16.4 0.6q-5.5-0.2-11-0.4l-0.1 3.6q5.5 0.2 10.9 0.5l0.2-3.7zm16.3 0.6q-5.4-0.2-10.9-0.4l-0.1 3.7q5.5 0.2 10.9 0.4l0.1-3.7zm16.4 0.6q-5.4-0.2-10.9-0.4l-0.1 3.7q5.4 0.2 10.9 0.3l0.1-3.6zm16.4 0.6q-5.4-0.2-10.9-0.4l-0.1 3.6q5.4 0.2 10.9 0.4l0.1-3.6zm16.4 0.5q-5.5-0.1-10.9-0.3l-0.2 3.6q5.5 0.2 11 0.4zm16.4 0.5q-5.5-0.1-11-0.3l-0.1 3.6q5.5 0.2 10.9 0.4l0.1-3.7zm16.4 0.6q-5.4-0.2-10.9-0.4l-0.1 3.7q5.5 0.1 10.9 0.3zm16.4 0.5q-5.4-0.1-10.9-0.3l-0.1 3.6q5.4 0.2 10.9 0.4zm16.4 0.5q-5.5-0.2-11-0.3l-0.1 3.6q5.5 0.2 11 0.3l0.1-3.6zm16.4 0.5q-5.5-0.2-11-0.3l-0.1 3.6q5.5 0.2 10.9 0.3l0.2-3.6zm16.3 0.5q-5.4-0.2-10.9-0.4l-0.1 3.7q5.5 0.1 10.9 0.3l0.1-3.6zm16.4 0.4q-5.4-0.1-10.9-0.3l-0.1 3.7q5.5 0.1 10.9 0.3l0.1-3.7zm16.4 0.5q-5.4-0.2-10.9-0.3l-0.1 3.6q5.5 0.2 10.9 0.3l0.1-3.6zm16.4 0.4q-5.5-0.1-10.9-0.3l-0.1 3.7q5.5 0.1 10.9 0.3l0.1-3.7zm16.4 0.4q-5.5-0.1-10.9-0.2l-0.1 3.6q5.4 0.1 10.9 0.3l0.1-3.7zm16.4 0.4q-5.5-0.1-11-0.2v3.6q5.4 0.2 10.9 0.3zm16.4 0.4q-5.5-0.2-11-0.3v3.7q5.4 0.1 10.9 0.2l0.1-3.6zm16.4 0.4q-5.5-0.2-11-0.3l-0.1 3.6q5.5 0.2 11 0.3l0.1-3.6zm16.3 0.3q-5.4-0.1-10.9-0.2l-0.1 3.6q5.5 0.1 11 0.3v-3.7zm16.4 0.4q-5.4-0.2-10.9-0.3l-0.1 3.7q5.5 0.1 11 0.2zm16.3 0.3q-5.4-0.1-10.9-0.2l-0.1 3.7q5.5 0.1 11 0.2v-3.7zm16.4 0.4q-5.4-0.2-10.9-0.3l-0.1 3.7q5.5 0.1 11 0.2v-3.6zm16.4 0.3q-5.4-0.1-10.9-0.2l-0.1 3.6q5.5 0.1 11 0.2v-3.6zm16.4 0.2q-5.4-0.1-10.9-0.1l-0.1 3.6q5.5 0.1 10.9 0.2l0.1-3.7zm16.4 0.3q-5.4-0.1-10.9-0.2l-0.1 3.7q5.5 0.1 10.9 0.2zm16.4 0.2q-5.4-0.1-10.9-0.2l-0.1 3.7q5.5 0.1 11 0.1zm16.4 0.3q-5.5-0.1-11-0.2v3.7q5.5 0.1 10.9 0.1l0.1-3.6zm16.4 0.2q-5.5-0.1-11-0.1v3.6q5.5 0.1 10.9 0.2l0.1-3.7zm16.3 0.2q-5.4-0.1-10.9-0.1v3.6q5.5 0.1 10.9 0.2v-3.7zm16.4 0.2q-5.4-0.1-10.9-0.1v3.6q5.5 0.1 10.9 0.1v-3.6zm16.4 0.2q-5.4-0.1-10.9-0.1v3.6q5.4 0.1 10.9 0.1v-3.6zm16.4 0.1q-5.4 0-10.9-0.1v3.7q5.4 0 10.9 0.1v-3.7zm16.4 0.2q-5.4-0.1-10.9-0.1v3.6q5.4 0.1 10.9 0.1v-3.6zm16.4 0.1q-5.4 0-10.9-0.1l-0.1 3.7q5.5 0 11 0v-3.6zm16.4 0.1q-5.4 0-10.9-0.1l-0.1 3.7q5.5 0 11 0zm16.4 0.1q-5.5 0-11 0v3.6q5.5 0 10.9 0.1l0.1-3.7zm16.4 0.1q-5.5 0-11 0v3.6q5.5 0 10.9 0zm16.4 0.1q-5.4 0-10.9 0v3.6q5.5 0 10.9 0zm16.4 0.1q-5.4 0-10.9-0.1v3.7q5.5 0 10.9 0v-3.6zm16.4 0q-5.4 0-10.9 0v3.6q5.5 0 10.9 0zm16.4 0q-5.2 0-10.4 0-0.3 0-0.5 0v3.7q0.2 0 0.5 0 5.2 0 10.4 0zm16.4-0.1q-5.4 0.1-10.9 0.1v3.6q5.5 0 10.9 0zm16.4 0q-5.4 0-10.9 0v3.6q5.5 0 10.9 0v-3.6zm16.4-0.1q-5.5 0-10.9 0v3.7q5.5 0 10.9-0.1zm16.4 0q-5.4 0-10.9 0v3.7q5.5-0.1 10.9-0.1v-3.6zm16.4-0.1q-5.5 0-10.9 0v3.7q5.5-0.1 10.9-0.1zm16.4-0.1q-5.4 0-10.9 0.1v3.6q5.5 0 10.9-0.1zm16.4-0.1q-5.4 0-10.9 0.1v3.6q5.5 0 10.9-0.1v-3.6zm16.4-0.2q-5.4 0.1-10.9 0.1v3.7q5.5-0.1 10.9-0.1v-3.7zm16.4-0.1q-5.4 0-10.9 0.1v3.6q5.5 0 10.9-0.1v-3.6zm16.4-0.2q-5.4 0-10.9 0.1v3.6q5.5 0 10.9-0.1v-3.6zm16.4-0.3q-5.5 0.1-10.9 0.2v3.6q5.5-0.1 10.9-0.1v-3.7zm16.4-0.2q-5.5 0.1-11 0.2l0.1 3.6q5.5-0.1 10.9-0.2zm16.4-0.2q-5.4 0.1-10.9 0.1v3.7q5.5-0.1 11-0.2l-0.1-3.6zm16.4-0.3q-5.4 0.1-10.9 0.2v3.6q5.5-0.1 11-0.2l-0.1-3.6zm16.4-0.3q-5.4 0.1-10.9 0.2v3.6q5.5-0.1 11-0.2l-0.1-3.6zm16.4-0.4q-5.4 0.1-10.9 0.3v3.6q5.5-0.1 11-0.2zm16.3-0.4q-5.4 0.1-10.9 0.3l0.1 3.6q5.5-0.1 10.9-0.2l-0.1-3.7zm16.4-0.4q-5.4 0.2-10.9 0.3l0.1 3.6q5.5-0.1 10.9-0.2l-0.1-3.7zm16.4-0.4q-5.4 0.2-10.9 0.3l0.1 3.6q5.5-0.1 10.9-0.2l-0.1-3.7zm16.4-0.4q-5.4 0.1-10.9 0.3l0.1 3.6q5.5-0.1 10.9-0.3l-0.1-3.6zm16.4-0.5q-5.4 0.2-10.9 0.3l0.1 3.7q5.5-0.2 10.9-0.3l-0.1-3.7zm16.4-0.5q-5.4 0.2-11 0.4l0.2 3.6q5.5-0.2 10.9-0.3zm16.4-0.6q-5.4 0.2-11 0.4l0.2 3.6q5.5-0.1 10.9-0.3l-0.1-3.7zm16.3-0.5q-5.3 0.2-10.9 0.4l0.1 3.6q5.6-0.2 11-0.4l-0.2-3.6zm16.4-0.6q-5.4 0.2-10.9 0.4l0.1 3.7q5.6-0.2 11-0.4l-0.2-3.7zm16.4-0.6q-5.4 0.2-10.9 0.4l0.1 3.7q5.6-0.2 10.9-0.4zm16.4-0.7q-5.3 0.2-10.9 0.4l0.1 3.7q5.6-0.2 11-0.5l-0.2-3.6zm16.4-0.7q-5.4 0.3-10.9 0.5l0.1 3.6q5.6-0.2 11-0.4l-0.2-3.7zm16.4-0.7q-5.4 0.3-10.9 0.5l0.1 3.6q5.6-0.2 10.9-0.4zm16.4-0.8q-5.3 0.3-10.9 0.5l0.2 3.6q5.6-0.2 10.9-0.5zm16.4-0.8q-5.3 0.3-11 0.6l0.2 3.6q5.6-0.3 10.9-0.5l-0.1-3.7zm16.3-0.8q-5.2 0.3-10.9 0.6l0.2 3.6q5.7-0.3 10.9-0.6l-0.2-3.6zm16.4-0.9q-5.2 0.3-10.9 0.6l0.2 3.6q5.7-0.3 10.9-0.6zm16.4-0.9q-5.1 0.3-11 0.6l0.3 3.7q5.8-0.4 10.9-0.7l-0.2-3.6zm16.3-1q-4.8 0.3-10.9 0.7l0.2 3.6q6.2-0.4 10.9-0.7l-0.2-3.6zm16.3-1.2q0 0-2.7 0.2-2.7 0.2-8.1 0.6l0.2 3.6c7.3-0.5 10.9-0.7 10.9-0.7l-0.3-3.7z"/>
					<path id="&lt;Compound Path&gt;" class="s1" d="m495.3 2572.6q-5.1-0.2-10.3-0.5l-0.1 3.7q5.1 0.2 10.3 0.4l0.1-3.6zm16.4 0.7q-5.5-0.3-10.9-0.5l-0.2 3.7q5.5 0.2 10.9 0.4l0.2-3.6zm16.4 0.7q-5.5-0.3-11-0.5l-0.1 3.6q5.5 0.3 10.9 0.5zm16.4 0.7q-5.5-0.3-10.9-0.5l-0.2 3.7q5.5 0.2 10.9 0.4l0.2-3.6zm16.4 0.6q-5.5-0.2-11-0.4l-0.1 3.6q5.5 0.3 10.9 0.5l0.2-3.7zm16.3 0.7q-5.4-0.2-10.9-0.5l-0.1 3.7q5.5 0.2 10.9 0.4l0.1-3.6zm16.4 0.6q-5.4-0.2-10.9-0.4l-0.1 3.6q5.4 0.2 10.9 0.4zm16.4 0.7q-5.5-0.2-11-0.4l-0.1 3.6q5.5 0.2 10.9 0.4l0.2-3.6zm16.3 0.6q-5.4-0.2-10.9-0.4l-0.1 3.6q5.5 0.2 10.9 0.4l0.1-3.6zm16.4 0.6q-5.4-0.2-10.9-0.4l-0.1 3.6q5.4 0.2 10.9 0.4l0.1-3.6zm16.4 0.5q-5.4-0.2-10.9-0.3l-0.1 3.6q5.4 0.2 10.9 0.4l0.1-3.7zm16.4 0.6q-5.5-0.2-10.9-0.4l-0.2 3.7q5.5 0.2 11 0.3zm16.4 0.6q-5.5-0.2-11-0.4l-0.1 3.7q5.5 0.1 10.9 0.3l0.1-3.6zm16.4 0.5q-5.4-0.2-10.9-0.3l-0.1 3.6q5.5 0.2 10.9 0.4zm16.4 0.5q-5.4-0.2-10.9-0.4l-0.1 3.7q5.4 0.2 10.9 0.3zm16.4 0.5q-5.5-0.1-11-0.3l-0.1 3.6q5.5 0.2 11 0.4l0.1-3.7zm16.4 0.5q-5.5-0.1-11-0.3l-0.1 3.6q5.5 0.2 10.9 0.4l0.2-3.7zm16.3 0.5q-5.4-0.1-10.9-0.3l-0.1 3.6q5.5 0.2 10.9 0.4l0.1-3.7zm16.4 0.5q-5.4-0.2-10.9-0.3l-0.1 3.6q5.5 0.2 10.9 0.3l0.1-3.6zm16.4 0.4q-5.4-0.1-10.9-0.3l-0.1 3.7q5.5 0.1 10.9 0.3l0.1-3.7zm16.4 0.5q-5.5-0.2-10.9-0.3l-0.1 3.6q5.5 0.2 10.9 0.3l0.1-3.6zm16.4 0.4q-5.5-0.2-10.9-0.3l-0.1 3.6q5.4 0.2 10.9 0.3l0.1-3.6zm16.4 0.4q-5.5-0.1-11-0.3v3.7q5.4 0.1 10.9 0.2zm16.4 0.4q-5.5-0.1-11-0.2v3.6q5.4 0.1 10.9 0.3l0.1-3.7zm16.4 0.4q-5.5-0.1-11-0.2l-0.1 3.6q5.5 0.1 11 0.2l0.1-3.6zm16.3 0.4q-5.4-0.2-10.9-0.3l-0.1 3.7q5.5 0.1 11 0.2v-3.6zm16.4 0.3q-5.4-0.1-10.9-0.2l-0.1 3.6q5.5 0.1 11 0.3zm16.3 0.3q-5.4-0.1-10.9-0.2l-0.1 3.6q5.5 0.1 11 0.2v-3.6zm16.4 0.3q-5.4-0.1-10.9-0.2l-0.1 3.6q5.5 0.1 11 0.2v-3.6zm16.4 0.3q-5.4-0.1-10.9-0.2l-0.1 3.6q5.5 0.1 11 0.2v-3.6zm16.4 0.3q-5.4-0.1-10.9-0.2l-0.1 3.6q5.5 0.1 10.9 0.2l0.1-3.6zm16.4 0.3q-5.4-0.1-10.9-0.2l-0.1 3.6q5.5 0.1 10.9 0.2zm16.4 0.3q-5.4-0.1-10.9-0.2l-0.1 3.6q5.5 0.1 11 0.2zm16.4 0.2q-5.5 0-11-0.1v3.6q5.5 0.1 10.9 0.2l0.1-3.7zm16.4 0.3q-5.5-0.1-11-0.2v3.7q5.5 0 10.9 0.1l0.1-3.6zm16.3 0.2q-5.4-0.1-10.9-0.2v3.7q5.5 0 10.9 0.1v-3.6zm16.4 0.2q-5.4-0.1-10.9-0.2v3.7q5.5 0 10.9 0.1v-3.6zm16.4 0.1q-5.4 0-10.9-0.1v3.7q5.4 0 10.9 0.1v-3.7zm16.4 0.2q-5.4-0.1-10.9-0.1v3.6q5.4 0.1 10.9 0.1v-3.6zm16.4 0.1q-5.4 0-10.9-0.1v3.7q5.4 0 10.9 0.1v-3.7zm16.4 0.1q-5.4 0-10.9 0l-0.1 3.6q5.5 0 11 0.1v-3.7zm16.4 0.1q-5.4 0-10.9 0l-0.1 3.6q5.5 0.1 11 0.1zm16.4 0.1q-5.5-0.1-11-0.1v3.7q5.5 0 10.9 0l0.1-3.6zm16.4 0q-5.5 0-11 0v3.6q5.5 0.1 10.9 0.1zm16.4 0q-5.4 0-10.9 0v3.7q5.5 0 10.9 0zm16.4 0q-5.4 0-10.9 0v3.6q5.5 0.1 10.9 0.1v-3.7zm16.4 0q-5.4 0-10.9 0v3.7q5.5 0 10.9 0zm16.4 0q-5.2 0-10.4 0-0.3 0-0.5 0v3.6q0.2 0 0.5 0 5.2 0 10.4 0zm16.4 0q-5.4 0-10.9 0v3.7q5.5-0.1 10.9-0.1zm16.4 0q-5.4 0-10.9 0v3.7q5.5 0 10.9-0.1v-3.6zm16.4-0.1q-5.5 0.1-10.9 0.1v3.6q5.5 0 10.9 0zm16.4-0.1q-5.4 0-10.9 0.1v3.6q5.5 0 10.9-0.1v-3.6zm16.4-0.1q-5.5 0-10.9 0.1v3.6q5.5 0 10.9 0zm16.4-0.2q-5.4 0.1-10.9 0.1v3.7q5.5-0.1 10.9-0.1zm16.4-0.2q-5.4 0.1-10.9 0.1v3.7q5.5-0.1 10.9-0.1v-3.7zm16.4-0.1q-5.4 0-10.9 0.1v3.6q5.5 0 10.9-0.1v-3.6zm16.4-0.2q-5.4 0.1-10.9 0.1v3.7q5.5-0.1 10.9-0.2v-3.6zm16.4-0.2q-5.4 0.1-10.9 0.1v3.7q5.5-0.1 10.9-0.2v-3.6zm16.4-0.2q-5.5 0.1-10.9 0.1v3.7q5.5-0.1 10.9-0.2v-3.6zm16.4-0.3q-5.5 0.1-11 0.2l0.1 3.6q5.5 0 10.9-0.1zm16.4-0.3q-5.4 0.1-10.9 0.2v3.6q5.5-0.1 11-0.1l-0.1-3.7zm16.4-0.3q-5.4 0.1-10.9 0.2v3.7q5.5-0.1 11-0.2l-0.1-3.7zm16.4-0.3q-5.4 0.1-10.9 0.2v3.7q5.5-0.1 11-0.2l-0.1-3.7zm16.4-0.3q-5.4 0.1-10.9 0.2v3.6q5.5-0.1 11-0.2zm16.3-0.3q-5.4 0.1-10.9 0.2l0.1 3.6q5.5-0.1 10.9-0.2l-0.1-3.6zm16.4-0.4q-5.4 0.1-10.9 0.2l0.1 3.7q5.5-0.2 10.9-0.3l-0.1-3.6zm16.4-0.4q-5.4 0.1-10.9 0.2l0.1 3.7q5.5-0.2 10.9-0.3l-0.1-3.6zm16.4-0.5q-5.4 0.2-10.9 0.3l0.1 3.7q5.5-0.2 10.9-0.3l-0.1-3.7zm16.4-0.4q-5.4 0.1-10.9 0.3l0.1 3.6q5.5-0.1 10.9-0.3l-0.1-3.6zm16.4-0.5q-5.4 0.1-11 0.3l0.2 3.6q5.5-0.1 10.9-0.3zm16.4-0.5q-5.4 0.2-11 0.3l0.2 3.7q5.5-0.2 10.9-0.4l-0.1-3.6zm16.3-0.5q-5.3 0.1-10.9 0.3l0.1 3.7q5.6-0.2 11-0.4l-0.2-3.7zm16.4-0.5q-5.4 0.2-10.9 0.4l0.1 3.6q5.6-0.2 11-0.4l-0.2-3.6zm16.4-0.6q-5.4 0.2-10.9 0.4l0.1 3.6q5.6-0.2 10.9-0.4zm16.4-0.6q-5.3 0.2-10.9 0.4l0.1 3.6q5.6-0.2 11-0.4l-0.2-3.6zm16.4-0.7q-5.4 0.2-10.9 0.4l0.1 3.7q5.6-0.3 11-0.5l-0.2-3.6zm16.4-0.7q-5.4 0.2-10.9 0.4l0.1 3.7q5.6-0.3 10.9-0.5zm16.4-0.8q-5.3 0.3-10.9 0.6l0.2 3.6q5.6-0.3 10.9-0.5zm16.4-0.8q-5.3 0.3-11 0.5l0.2 3.7q5.6-0.3 10.9-0.6l-0.1-3.6zm16.3-0.9q-5.2 0.3-10.9 0.6l0.2 3.7q5.7-0.3 10.9-0.6l-0.2-3.7zm16.4-0.9q-5.2 0.3-10.9 0.7l0.2 3.6q5.7-0.3 10.9-0.6zm16.4-1q-5.1 0.3-11 0.7l0.3 3.6q5.8-0.3 10.9-0.6l-0.2-3.7zm16.3-1q-4.8 0.3-10.9 0.7l0.2 3.6q6.2-0.3 10.9-0.7l-0.2-3.6zm16.3-1.1q0 0-2.7 0.2-2.7 0.2-8.1 0.5l0.2 3.7c7.3-0.5 10.9-0.8 10.9-0.8l-0.3-3.6z"/>
				</g>
				<g id="&lt;Group&gt;">
					<path id="&lt;Path&gt;" class="s2" d="m1447.3 341.7l60.4 29.8c0 0-88 68.2-346.1 70.7-159.2 0-303.3-46-346.1-69.8 53.6-29.8 53.6-29.8 53.6-29.8 0 0 162.6 39.1 299.2 39.1 136.6 0 279-40 279-40z"/>
					<path id="&lt;Path&gt;" class="s1" d="m1447.3 341.7l-2.2 4.6 60.3 29.8 2.3-4.6-3.1-4 1.9 2.5-1.9-2.5 1.9 2.5-1.9-2.5-0.1 0.1c-1.2 0.9-23.9 17.6-77.8 34.5-53.9 16.9-139 33.8-265.1 35.1-79.1 0-154.6-11.5-215.6-25.9-30.4-7.2-57.3-15.1-79.1-22.7-10.9-3.8-20.6-7.6-28.8-11-8.2-3.5-15-6.8-20.1-9.6l-2.5 4.4 2.5 4.4c53.6-29.8 53.6-29.8 53.6-29.8l-2.5-4.4-1.1 4.9c0 0 40.8 9.8 98.7 19.7 57.8 9.8 132.8 19.6 201.6 19.6 68.8 0 138.8-10 191.7-20.1 52.9-10 88.6-20.1 88.7-20.1l-1.4-4.9-2.2 4.6 2.2-4.6-1.3-4.9-0.1 0.1c-2.1 0.5-38.1 10.5-90.3 20.3-52.2 9.8-120.6 19.5-187.3 19.5-67.8 0-142.4-9.8-199.9-19.5-28.8-4.9-53.3-9.8-70.7-13.5-8.6-1.8-15.5-3.3-20.2-4.4q-3.5-0.8-5.3-1.2-0.9-0.2-1.4-0.4-0.5-0.1-0.5-0.1c-1.2-0.3-2.5-0.1-3.6 0.5 0 0 0 0-53.6 29.8-1.7 0.9-2.6 2.6-2.7 4.5 0 1.8 1 3.5 2.6 4.4 5.6 3.1 12.7 6.5 21.1 10.1 14.9 6.3 33.9 13.2 56.5 20 67.5 20.5 165.9 40.4 271 40.4h0.1c129.4-1.3 216.5-19 271.3-36.6 54.8-17.5 77.3-34.8 77.8-35.2 1.4-1 2.1-2.7 1.9-4.5-0.1-1.7-1.2-3.2-2.8-4l-60.3-29.8c-1.1-0.6-2.4-0.7-3.6-0.4z"/>
					<path id="&lt;Compound Path&gt;" class="s1" d="m1511.3 385c2.8-2.1 5.2-4.4 7.2-6.6l-2.7-2.5c-1.8 2.1-4.1 4.2-6.8 6.2l2.3 2.9zm-14.2 9q5.1-2.8 9.6-5.7l-2.1-3.1c-2.8 1.9-5.9 3.8-9.3 5.6zm-14.9 7.4q5.2-2.4 10-4.8l-1.6-3.3q-4.8 2.4-9.9 4.7zm-15.4 6.3q5.2-2 10.3-4.1l-1.4-3.4q-5 2.1-10.2 4.1l1.3 3.4zm-15.6 5.7q5.2-1.8 10.4-3.7l-1.2-3.5q-5.2 1.9-10.4 3.7l1.2 3.5zm-15.8 5.1q5.2-1.6 10.5-3.4l-1.1-3.5q-5.3 1.8-10.5 3.4zm-15.9 4.6q5.1-1.4 10.6-3l-1-3.5q-5.5 1.6-10.6 3zm-16 4.3c3.2-0.8 6.8-1.7 10.7-2.8l-1-3.5c-3.8 1-7.4 2-10.6 2.8l0.9 3.5zm-16.1 4q0.9-0.3 0.9-0.3l-0.4-1.7 0.4 1.8c0-0.1 3.7-0.9 9.9-2.4l-0.9-3.6c-3.1 0.8-5.5 1.4-7.2 1.8q-1.3 0.3-2 0.4-0.6 0.2-0.6 0.2h-0.1q0 0-0.2 0-0.2 0.1-0.7 0.2l0.9 3.6zm-16.2 3.5c4.4-0.9 8-1.7 10.8-2.3l-0.8-3.6c-2.8 0.7-6.4 1.4-10.8 2.3l0.8 3.6zm-16.3 3.1q5.9-1 10.9-2l-0.7-3.6q-5 1-10.8 2zm-16.3 2.8q5.7-0.9 10.8-1.8l-0.6-3.6q-5.1 0.9-10.8 1.8zm-16.4 2.5q5.7-0.8 10.9-1.6l-0.5-3.6q-5.3 0.8-10.9 1.6zm-16.4 2.2q5.6-0.7 10.9-1.4l-0.5-3.7q-5.2 0.8-10.9 1.5zm-16.4 2q5.6-0.6 11-1.3l-0.5-3.6q-5.3 0.6-10.9 1.2l0.4 3.7zm-16.4 1.7q5.6-0.5 10.9-1.1l-0.3-3.7q-5.4 0.6-11 1.2l0.4 3.6zm-16.5 1.5q5.6-0.4 11-1l-0.3-3.6q-5.4 0.5-11 1l0.3 3.6zm-16.5 1.3q5.6-0.4 11-0.8l-0.3-3.7q-5.4 0.4-10.9 0.8l0.2 3.7zm-16.5 1q5.6-0.3 11-0.7l-0.2-3.6q-5.4 0.3-11 0.6zm-16.5 0.8q5.6-0.3 11-0.5l-0.1-3.7q-5.5 0.3-11 0.5zm-16.5 0.5q5.5-0.1 11-0.3l-0.2-3.7q-5.4 0.2-10.9 0.3l0.1 3.7zm-16.6 0.3q5.6-0.1 11-0.2v-3.6q-5.5 0.1-11 0.1v3.7zm-16.5 0q3.6 0 7.1 0 2 0 3.9 0v-3.7q-1.9 0.1-3.9 0.1-3.5 0-7.1-0.1zm-16.5-0.2q5.5 0.1 11 0.2l0.1-3.7q-5.5 0-11-0.2l-0.1 3.7zm-16.5-0.5q5.5 0.2 11 0.4l0.1-3.7q-5.5-0.2-11-0.4zm-16.5-0.7q5.5 0.3 11 0.5l0.2-3.6q-5.5-0.3-11-0.6l-0.2 3.7zm-16.5-1q5.5 0.4 11 0.7l0.2-3.7q-5.4-0.3-11-0.7l-0.2 3.7zm-16.5-1.3q5.5 0.5 11 0.9l0.3-3.7q-5.5-0.4-11-0.9l-0.3 3.7zm-16.4-1.6q5.5 0.6 10.9 1.1l0.4-3.6q-5.5-0.5-11-1.1l-0.3 3.6zm-16.5-1.8q5.5 0.7 11 1.3l0.4-3.7q-5.5-0.6-10.9-1.2l-0.5 3.6zm-16.4-2.1q5.5 0.7 10.9 1.4l0.5-3.6q-5.4-0.7-10.9-1.4l-0.5 3.6zm-16.3-2.4q5.4 0.8 10.9 1.6l0.5-3.6q-5.4-0.8-10.9-1.6zm-16.3-2.7q5.5 0.9 10.9 1.8l0.6-3.6q-5.4-0.9-10.9-1.9zm-16.3-3q5.5 1.1 10.9 2.1l0.6-3.6q-5.3-1-10.8-2.1l-0.7 3.6zm-16.2-3.3q5.4 1.2 10.8 2.3l0.7-3.6q-5.3-1.1-10.7-2.2l-0.8 3.5zm-16.2-3.6q5.4 1.3 10.8 2.5l0.8-3.6q-5.4-1.2-10.7-2.4zm-16.1-4q5.3 1.4 10.7 2.7l0.9-3.6q-5.4-1.3-10.7-2.6zm-16.1-3.8q5.4 1.4 10.8 2.6l0.8-3.6q-5.3-1.2-10.7-2.6l-0.9 3.6zm-16-4.5q5.3 1.6 10.7 3l0.9-3.5q-5.2-1.5-10.5-3l-1.1 3.5zm-15.7-5.1q5.2 1.8 10.5 3.4l1.1-3.5q-5.3-1.6-10.5-3.4l-1.1 3.5zm-15.7-5.5q5.1 1.9 10.4 3.7l1.2-3.4q-5.2-1.9-10.3-3.7zm-15.5-5.9q5 1.9 10.3 3.9l1.3-3.4q-5.3-2-10.2-3.9zm-15.4-6.3q4.9 2 10.3 4.2l1.3-3.4q-5.3-2.2-10.1-4.2zm-15.2-6.6c3 1.4 6.4 2.9 10.1 4.5l1.4-3.4c-3.7-1.6-7.1-3.1-10-4.4l-1.5 3.3zm-15.1-6.9c0 0 3.7 1.8 10 4.7l1.5-3.4c-3.1-1.4-5.6-2.6-7.3-3.4q-1.3-0.6-2-0.9-0.6-0.3-0.6-0.3l-1.6 3.3z"/>
				</g>
			</g>
		</g>
	</g>
</svg>