<svg version="1.2" xmlns="http://www.w3.org/2000/svg" viewBox="0 0 2350 3000" width="2350" height="3000">
	<title>vecteezy_regular-fit-short-sleeve-t-shirt-technical-sketch-fashion_6188997-ai</title>
	<style>
		.s0 { fill: #ffffff } 
		.s1 { fill: #000000 } 
		.s2 { fill: #f2f2f2 } 
	</style>
	<g id="_Artboards_">
	</g>
	<g id="Layer 1">
		<g id="&lt;Group&gt;">
			<g id="&lt;Group&gt;">
				<g id="&lt;Group&gt;">
					<path id="&lt;Path&gt;" class="s0" d="m556.7 532.7l-45.6-27.9-475.9 498.7 334.1 331.7 158.3-115.2c0 0 60.7-229.1 65.8-387.4 5-158.2-36.7-299.9-36.7-299.9z"/>
					<path id="&lt;Path&gt;" class="s1" d="m556.7 532.7l2.6-4.4-45.6-27.8c-2-1.3-4.6-0.9-6.3 0.8l-475.9 498.7c-1.9 2-1.9 5.2 0.1 7.1l334.2 331.7c1.7 1.7 4.5 1.9 6.5 0.5l158.2-115.2c1-0.7 1.6-1.7 1.9-2.8 0.1-0.1 15.3-57.4 31.1-134.6 8-38.6 16-82.2 22.5-126.1 6.4-43.8 11.2-88 12.4-127.8q0.5-13.6 0.5-27.1c0-73.9-9.4-142.5-18.7-192.6-9.3-50.1-18.6-81.7-18.7-81.9-0.3-1.2-1.1-2.2-2.2-2.9l-2.6 4.4-4.9 1.4v0.1c0.6 1.8 9.8 33.7 18.9 83.1 9.1 49.5 18 116.5 18 188.4q0 13.3-0.4 26.8c-1.2 39.3-6 83.1-12.4 126.7-9.5 65.4-22.9 130.3-33.8 178.8-5.5 24.3-10.3 44.5-13.8 58.6-1.8 7-3.2 12.6-4.1 16.3q-0.8 2.9-1.2 4.3-0.1 0.7-0.2 1.1-0.1 0.4-0.1 0.4l4.9 1.3-3-4.1-154.8 112.6-327.5-325.1 469.6-492.1 42.1 25.7 2.7-4.3-4.9 1.4z"/>
					<path id="&lt;Compound Path&gt;" class="s1" d="m396.3 1297.1l7.8 7.7 2.5-2.6-7.7-7.7zm-11.7-11.5l7.8 7.7 2.5-2.6-7.7-7.7zm-11.7-11.5l7.8 7.7 2.5-2.6-7.7-7.7zm-11.7-11.5l7.8 7.7 2.5-2.6-7.7-7.7zm-11.7-11.5l7.8 7.7 2.5-2.6-7.7-7.7zm-11.7-11.5l7.8 7.6 2.5-2.6-7.7-7.6zm-11.7-11.6l7.8 7.7 2.5-2.6-7.7-7.7zm-11.7-11.5l7.8 7.7 2.5-2.6-7.7-7.7zm-11.7-11.5l7.8 7.7 2.6-2.6-7.8-7.7zm-11.7-11.5l7.8 7.7 2.6-2.6-7.8-7.7zm-11.7-11.5l7.8 7.7 2.6-2.6-7.8-7.7zm-11.7-11.5l7.8 7.6 2.6-2.6-7.8-7.6zm-11.7-11.6l7.8 7.7 2.6-2.6-7.8-7.7zm-11.7-11.5l7.8 7.7 2.6-2.6-7.8-7.7zm-11.7-11.5l7.8 7.7 2.6-2.6-7.8-7.7zm-11.7-11.5l7.8 7.7 2.6-2.6-7.8-7.7zm-11.7-11.5l7.8 7.7 2.6-2.6-7.8-7.7zm-11.6-11.5l7.7 7.6 2.6-2.6-7.8-7.6zm-11.6-11.6l7.7 7.7 2.6-2.6-7.8-7.7zm-11.6-11.5l7.7 7.7 2.6-2.6-7.8-7.7zm-11.6-11.5l7.7 7.7 2.6-2.6-7.8-7.7zm-11.6-11.5l7.7 7.7 2.6-2.6-7.8-7.7zm-11.6-11.5l7.7 7.7 2.6-2.6-7.8-7.7zm-11.6-11.6l7.7 7.7 2.6-2.6-7.8-7.6zm-11.6-11.6l7.7 7.7 2.6-2.6-7.8-7.7zm-11.6-11.5l7.8 7.7 2.5-2.6-7.8-7.7zm-11.6-11.5l7.8 7.7 2.5-2.6-7.8-7.7zm-11.6-11.5l7.8 7.7 2.5-2.6-7.8-7.7zm-11.6-11.5l7.8 7.6 2.5-2.5-7.7-7.7z"/>
					<path id="&lt;Compound Path&gt;" class="s1" d="m404.2 1288.6l7.8 7.7 2.5-2.6-7.8-7.7zm-11.6-11.5l7.8 7.7 2.5-2.6-7.8-7.7zm-11.6-11.5l7.8 7.7 2.5-2.6-7.7-7.7zm-11.7-11.5l7.8 7.7 2.5-2.6-7.7-7.7zm-11.7-11.5l7.8 7.7 2.5-2.6-7.7-7.7zm-11.7-11.5l7.8 7.6 2.5-2.6-7.7-7.6zm-11.7-11.6l7.8 7.7 2.5-2.6-7.7-7.7zm-11.7-11.5l7.8 7.7 2.5-2.6-7.7-7.7zm-11.7-11.5l7.8 7.7 2.5-2.6-7.7-7.7zm-11.7-11.5l7.8 7.7 2.5-2.6-7.7-7.7zm-11.7-11.5l7.8 7.7 2.6-2.6-7.8-7.7zm-11.7-11.5l7.8 7.6 2.6-2.6-7.8-7.6zm-11.7-11.6l7.8 7.7 2.6-2.6-7.8-7.7zm-11.7-11.5l7.8 7.7 2.6-2.6-7.8-7.7zm-11.7-11.5l7.8 7.7 2.6-2.6-7.8-7.7zm-11.7-11.5l7.8 7.7 2.6-2.6-7.8-7.7zm-11.7-11.5l7.8 7.7 2.6-2.6-7.8-7.7zm-11.7-11.6l7.8 7.7 2.6-2.6-7.8-7.6zm-11.7-11.6l7.8 7.7 2.6-2.6-7.8-7.7zm-11.6-11.5l7.7 7.7 2.6-2.6-7.8-7.7zm-11.6-11.5l7.7 7.7 2.6-2.6-7.8-7.7zm-11.6-11.5l7.7 7.7 2.6-2.6-7.8-7.7zm-11.6-11.5l7.7 7.6 2.6-2.5-7.8-7.7zm-11.6-11.6l7.7 7.7 2.6-2.6-7.8-7.6zm-11.6-11.6l7.7 7.7 2.6-2.6-7.8-7.7zm-11.6-11.5l7.7 7.7 2.6-2.6-7.8-7.7zm-11.6-11.5l7.7 7.7 2.6-2.6-7.8-7.7zm-11.6-11.5l7.8 7.7 2.5-2.6-7.8-7.7zm-11.6-11.5l7.8 7.6 2.5-2.5-7.8-7.7z"/>
				</g>
				<g id="&lt;Group&gt;">
					<path id="&lt;Path&gt;" class="s0" d="m1813.6 518.7l32.9-8 478.5 492.8-332.9 330.4-170.9-126.6c0 0-95-472.1-7.6-688.6z"/>
					<path id="&lt;Path&gt;" class="s1" d="m1813.6 518.7l1.2 5 30.1-7.4 472.9 487.2-326.2 323.7-167.4-124-3 4.1 4.9-1q0 0-0.1-0.6c-1.3-6.5-12.4-63.3-23.1-143.7-10.8-80.3-21.2-184.3-21.2-285.3 0-47.9 2.4-95.2 8.1-138.8 5.8-43.7 14.9-83.7 28.5-117.3l-4.7-1.9 1.2 5-1.2-5-4.7-1.9c-14 34.7-23.3 75.5-29.1 119.8-5.9 44.2-8.2 91.8-8.2 140.1 0 104.9 11.1 212.8 22.3 294.4 11.1 81.7 22.3 137.1 22.3 137.2l0.4 1.9 175.9 130.3 339.6-336.9-484-498.5-38.2 9.3-1 2.4z"/>
					<path id="&lt;Compound Path&gt;" class="s1" d="m1966.7 1294.5l-7.8 7.7 2.6 2.6 7.7-7.7zm11.7-11.5l-7.8 7.7 2.6 2.6 7.8-7.7zm11.6-11.5l-7.8 7.7 2.6 2.5 7.8-7.6zm11.6-11.6l-7.7 7.7 2.5 2.6 7.8-7.7zm11.7-11.5l-7.8 7.7 2.5 2.6 7.8-7.7zm11.7-11.5l-7.8 7.7 2.6 2.5 7.7-7.6zm11.7-11.6l-7.8 7.7 2.6 2.6 7.8-7.7zm11.6-11.5l-7.8 7.7 2.6 2.6 7.8-7.7zm11.6-11.5l-7.7 7.6 2.5 2.6 7.8-7.6zm11.7-11.6l-7.8 7.7 2.5 2.6 7.8-7.7zm11.7-11.5l-7.8 7.7 2.6 2.6 7.7-7.7zm11.7-11.5l-7.8 7.6 2.6 2.6 7.8-7.7zm11.6-11.5l-7.8 7.7 2.6 2.6 7.8-7.7zm11.6-11.5l-7.7 7.7 2.5 2.6 7.8-7.7zm11.6-11.6l-7.7 7.7 2.5 2.6 7.8-7.7zm11.7-11.5l-7.8 7.7 2.6 2.6 7.7-7.7zm11.7-11.5l-7.8 7.7 2.6 2.5 7.7-7.6zm11.7-11.6l-7.8 7.7 2.6 2.6 7.8-7.7zm11.6-11.5l-7.7 7.7 2.5 2.6 7.8-7.7zm11.6-11.5l-7.7 7.7 2.5 2.5 7.8-7.6zm11.7-11.6l-7.8 7.7 2.6 2.6 7.7-7.7zm11.7-11.5l-7.8 7.7 2.6 2.6 7.7-7.7zm11.7-11.5l-7.8 7.6 2.6 2.6 7.8-7.6zm11.6-11.6l-7.8 7.7 2.6 2.6 7.8-7.7zm11.6-11.5l-7.7 7.7 2.5 2.6 7.8-7.7zm11.7-11.5l-7.8 7.6 2.5 2.6 7.8-7.7zm11.7-11.5l-7.8 7.7 2.6 2.6 7.7-7.7zm11.7-11.5l-7.8 7.7 2.6 2.6 7.8-7.7zm11.6-11.6l-7.8 7.7 2.6 2.6 7.8-7.7z"/>
					<path id="&lt;Compound Path&gt;" class="s1" d="m1958.8 1286l-7.8 7.7 2.6 2.6 7.7-7.7zm11.7-11.5l-7.8 7.7 2.6 2.6 7.8-7.7zm11.6-11.5l-7.7 7.7 2.5 2.5 7.8-7.6zm11.6-11.6l-7.7 7.7 2.5 2.6 7.8-7.7zm11.7-11.5l-7.8 7.7 2.6 2.6 7.7-7.7zm11.7-11.5l-7.8 7.7 2.6 2.5 7.7-7.6zm11.7-11.6l-7.8 7.7 2.6 2.6 7.8-7.7zm11.6-11.5l-7.8 7.7 2.6 2.6 7.8-7.7zm11.6-11.5l-7.7 7.6 2.5 2.6 7.8-7.6zm11.7-11.6l-7.8 7.7 2.5 2.6 7.8-7.7zm11.7-11.5l-7.8 7.7 2.6 2.6 7.7-7.7zm11.7-11.5l-7.8 7.6 2.6 2.6 7.8-7.7zm11.6-11.5l-7.8 7.7 2.6 2.6 7.8-7.7zm11.6-11.5l-7.7 7.7 2.5 2.6 7.8-7.7zm11.7-11.6l-7.8 7.7 2.5 2.6 7.8-7.7zm11.7-11.5l-7.8 7.7 2.6 2.6 7.7-7.7zm11.7-11.5l-7.8 7.7 2.6 2.5 7.8-7.6zm11.6-11.6l-7.8 7.7 2.6 2.6 7.8-7.7zm11.6-11.5l-7.7 7.7 2.5 2.6 7.8-7.7zm11.6-11.5l-7.7 7.7 2.5 2.5 7.8-7.6zm11.7-11.6l-7.8 7.7 2.6 2.6 7.7-7.7zm11.7-11.5l-7.8 7.7 2.6 2.6 7.7-7.7zm11.7-11.5l-7.8 7.6 2.6 2.6 7.8-7.6zm11.6-11.6l-7.7 7.7 2.5 2.6 7.8-7.7zm11.6-11.5l-7.7 7.7 2.5 2.6 7.8-7.7zm11.7-11.5l-7.8 7.6 2.6 2.6 7.7-7.7zm11.7-11.5l-7.8 7.7 2.6 2.6 7.7-7.7zm11.7-11.5l-7.8 7.7 2.6 2.6 7.8-7.7zm11.6-11.6l-7.8 7.7 2.6 2.6 7.8-7.7z"/>
				</g>
				<g id="&lt;Group&gt;">
					<path id="&lt;Path&gt;" class="s0" d="m875.6 371.9l-29.9-2.1-334.6 135c0 0 127 296.2 0.4 723.2 0 481-16.9 1414.3-16.9 1414.3 0 0 477.7 37.1 1370.5-1.7 0-759.5-16.9-1409.2-16.9-1409.2 0 0-113.1-420.3-1.7-720.7-286.9-124.9-329.1-146.8-329.1-146.8 0 0-148.5 38.8-339.2 42.2-190.7 3.4-302.6-34.2-302.6-34.2z"/>
					<path id="&lt;Path&gt;" class="s1" d="m875.6 371.9l0.4-5-30-2.2q-1.1 0-2.2 0.4l-334.6 135c-1.3 0.5-2.3 1.5-2.8 2.8-0.5 1.2-0.5 2.7 0 3.9h0.1c0.6 1.6 56.1 132.5 56.1 344.6 0 106.6-14 233.6-55.9 375.2-0.2 0.4-0.2 0.9-0.2 1.4 0 240.4-4.3 594-8.5 887.4-2.1 146.8-4.2 278.4-5.8 373.5-0.8 47.5-1.4 85.8-1.9 112.3-0.2 13.2-0.4 23.4-0.5 30.4-0.2 6.9-0.2 10.6-0.2 10.6-0.1 2.7 2 4.9 4.7 5.1 0.1 0 206.2 16.1 600.6 16.1 206.2 0 463.8-4.4 770.4-17.7 2.7-0.2 4.8-2.4 4.8-5.1 0-759.5-16.9-1409.3-16.9-1409.4 0-0.4 0-0.7-0.1-1.2q0 0.1-0.1-0.1c-0.7-2.7-13.3-50.6-25.8-124-12.5-73.5-24.7-172.7-24.7-278 0-105.5 12.3-217.1 48.7-315.4 1-2.5-0.2-5.4-2.7-6.4-143.4-62.5-225.7-99.2-272.1-120.2-23.1-10.6-37.4-17.2-45.8-21.2-4.2-2-6.9-3.3-8.6-4.2q-1.3-0.6-1.8-0.9-0.3-0.1-0.4-0.2h-0.1v0.1-0.1 0.1-0.1c-1.1-0.6-2.4-0.7-3.6-0.4h-0.1c-4.3 1.1-150.8 38.7-337.9 42q-12.3 0.2-24.1 0.2c-87.7 0-156.9-8.5-204.3-17.1-23.6-4.3-41.8-8.5-54-11.7-6.1-1.6-10.8-2.9-13.9-3.9q-2.3-0.7-3.4-1-0.6-0.2-0.9-0.3-0.1-0.1-0.2-0.1-0.7-0.2-1.3-0.2l-0.4 5-1.6 4.8c0.4 0.1 103.4 34.7 280 34.7q11.9 0 24.3-0.3c191.3-3.4 340.1-42.3 340.4-42.3l-1.3-4.9-2.3 4.5c0.1 0.1 10.7 5.6 57.2 26.7 46.4 21.1 128.7 57.8 272.2 120.3l2-4.7-4.8-1.7c-37 99.9-49.3 212.6-49.3 318.9 0 107.8 12.7 208.9 25.4 283.1 12.7 74.3 25.5 121.6 25.5 121.7l4.9-1.3-5.1 0.1c0 0 0.1 2.5 0.2 7.5 1.9 74.1 16.7 689.7 16.7 1401.6h5.1l-0.3-5.1c-306.4 13.4-563.9 17.7-769.9 17.7-197.1 0-347.1-4-447.8-8-50.3-2-88.4-4-113.8-5.5-12.7-0.7-22.3-1.3-28.7-1.8q-4.8-0.3-7.2-0.5-1.2-0.1-1.8-0.1-0.6-0.1-0.6-0.1l-0.4 5.1 5.1 0.1c0 0 16.9-933.3 16.9-1414.4h-5.1l4.9 1.4c42.2-142.5 56.3-270.5 56.3-378 0-215.6-56.8-348.1-56.9-348.6l-4.7 2 1.9 4.7 333.5-134.6 28.8 2.1 0.3-5.1-1.6 4.8z"/>
					<path id="&lt;Compound Path&gt;" class="s1" d="m1854.8 2589q5.2-0.3 10.3-0.5l-0.1-3.6q-5.2 0.2-10.4 0.4l0.2 3.7zm-16.3 0.7q5.4-0.3 10.9-0.5l-0.2-3.6q-5.5 0.2-10.9 0.4l0.2 3.7zm-16.4 0.6q5.4-0.2 10.9-0.4l-0.1-3.6q-5.5 0.2-11 0.4l0.2 3.6zm-16.4 0.7q5.5-0.2 10.9-0.4l-0.1-3.7q-5.5 0.3-10.9 0.5l0.1 3.6zm-16.4 0.7q5.5-0.2 10.9-0.5l-0.1-3.6q-5.5 0.2-10.9 0.4l0.1 3.7zm-16.4 0.6q5.5-0.2 11-0.4l-0.2-3.6q-5.5 0.2-10.9 0.4l0.1 3.6zm-16.3 0.7q5.4-0.3 10.9-0.5l-0.2-3.6q-5.4 0.2-10.9 0.4l0.2 3.7zm-16.4 0.6q5.4-0.2 10.9-0.4l-0.1-3.7q-5.5 0.2-11 0.4l0.2 3.7zm-16.4 0.6q5.4-0.2 10.9-0.4l-0.1-3.7q-5.5 0.2-10.9 0.4l0.1 3.7zm-16.4 0.6q5.5-0.2 10.9-0.4l-0.1-3.7q-5.5 0.2-10.9 0.4l0.1 3.7zm-16.4 0.5q5.5-0.1 10.9-0.3l-0.1-3.7q-5.5 0.2-10.9 0.4l0.1 3.6zm-16.4 0.6q5.5-0.2 11-0.4l-0.2-3.6q-5.4 0.2-10.9 0.4zm-16.4 0.5q5.5-0.2 11-0.3l-0.2-3.7q-5.4 0.2-10.9 0.4l0.1 3.6zm-16.4 0.6q5.5-0.2 11-0.4l-0.2-3.6q-5.4 0.1-10.9 0.3l0.1 3.7zm-16.3 0.5q5.4-0.2 10.9-0.4l-0.1-3.6q-5.5 0.2-11 0.3zm-16.3 0.5q5.4-0.1 10.9-0.3l-0.1-3.6q-5.5 0.1-11 0.3l0.2 3.6zm-16.4 0.5q5.4-0.1 10.9-0.3l-0.1-3.6q-5.5 0.1-10.9 0.3l0.1 3.6zm-16.4 0.5q5.4-0.1 10.9-0.3l-0.1-3.6q-5.5 0.1-10.9 0.3l0.1 3.6zm-16.4 0.5q5.4-0.2 10.9-0.3l-0.1-3.7q-5.5 0.2-10.9 0.3l0.1 3.7zm-16.4 0.4q5.4-0.1 10.9-0.3l-0.1-3.6q-5.5 0.1-10.9 0.3l0.1 3.6zm-16.4 0.5q5.5-0.2 10.9-0.3l-0.1-3.7q-5.4 0.2-10.9 0.3l0.1 3.7zm-16.4 0.4q5.5-0.2 10.9-0.3v-3.6q-5.5 0.1-11 0.2l0.1 3.7zm-16.4 0.4q5.5-0.1 11-0.3l-0.1-3.6q-5.5 0.1-11 0.3l0.1 3.6zm-16.4 0.4q5.5-0.1 11-0.3l-0.1-3.6q-5.5 0.1-10.9 0.2v3.7zm-16.4 0.4q5.5-0.2 11-0.3l-0.1-3.6q-5.5 0.1-10.9 0.2zm-16.4 0.4q5.4-0.1 10.9-0.3l-0.1-3.6q-5.5 0.1-10.9 0.2l0.1 3.7zm-16.4 0.3q5.4-0.1 10.9-0.2l-0.1-3.6q-5.4 0.1-10.9 0.2l0.1 3.6zm-16.4 0.4q5.4-0.1 10.9-0.3l-0.1-3.6q-5.4 0.1-10.9 0.2l0.1 3.7zm-16.4 0.3q5.4-0.1 10.9-0.2v-3.7q-5.5 0.1-11 0.2l0.1 3.7zm-16.4 0.3q5.5-0.1 10.9-0.2v-3.7q-5.5 0.1-11 0.2l0.1 3.7zm-16.4 0.3q5.5-0.1 10.9-0.2v-3.7q-5.5 0.1-10.9 0.2v3.7zm-16.4 0.2q5.5-0.1 11-0.1l-0.1-3.7q-5.5 0.1-10.9 0.2zm-16.4 0.2q5.4 0 10.9-0.1l-0.1-3.7q-5.4 0.1-10.9 0.2zm-16.4 0.2q5.5 0 11-0.1l-0.1-3.7q-5.5 0.1-10.9 0.2v3.6zm-16.4 0.3q5.5-0.1 11-0.2l-0.1-3.6q-5.5 0.1-10.9 0.1zm-16.4 0.2q5.4 0 10.9-0.1v-3.7q-5.5 0.1-11 0.2l0.1 3.6zm-16.4 0.2q5.4 0 10.9-0.1v-3.7q-5.5 0.1-10.9 0.2v3.6zm-16.4 0.2q5.4-0.1 10.9-0.1v-3.7q-5.5 0.1-10.9 0.1v3.7zm-16.4 0.1q5.4 0 10.9-0.1v-3.6q-5.5 0.1-10.9 0.1v3.6zm-16.4 0.2q5.5-0.1 10.9-0.1v-3.7q-5.5 0.1-10.9 0.1v3.7zm-16.4 0.1q5.5 0 10.9-0.1v-3.6q-5.5 0-10.9 0.1zm-16.4 0.1q5.4-0.1 10.9-0.1v-3.6q-5.5 0-10.9 0v3.7zm-16.4 0.1q5.4-0.1 10.9-0.1v-3.6q-5.5 0-10.9 0zm-16.4 0.1q5.4 0 10.9-0.1v-3.6q-5.5 0-10.9 0zm-16.4 0.1q5.4 0 10.9 0v-3.7q-5.5 0-10.9 0zm-16.4 0.1q5.4 0 10.9 0v-3.7q-5.5 0-10.9 0v3.7zm-16.4 0q5.4 0 10.9 0v-3.7q-5.5 0.1-10.9 0.1zm-16.4 0q5.2 0 10.4 0 0.2 0 0.5 0v-3.7q-0.3 0-0.5 0-5.2 0-10.4 0zm-16.4 0q5.4 0 10.9 0v-3.6q-5.5 0-10.9-0.1v3.7zm-16.4-0.1q5.4 0.1 10.9 0.1v-3.7q-5.5 0-10.9 0v3.6zm-16.4 0q5.4 0 10.9 0v-3.6q-5.5 0-10.9-0.1v3.7zm-16.4-0.1q5.4 0 10.9 0.1v-3.7q-5.4 0-10.9 0v3.6zm-16.4-0.1q5.4 0 10.9 0.1l0.1-3.7q-5.5 0-11 0zm-16.4-0.1q5.5 0 11 0v-3.6q-5.5 0-10.9-0.1zm-16.4-0.1q5.4 0 10.9 0.1v-3.7q-5.5 0-10.9-0.1v3.7zm-16.4-0.2q5.4 0.1 10.9 0.1v-3.6q-5.5-0.1-10.9-0.1v3.6zm-16.4-0.2q5.4 0.1 10.9 0.2v-3.7q-5.5 0-10.9-0.1v3.6zm-16.4-0.2q5.4 0.1 10.9 0.2l0.1-3.7q-5.5 0-11-0.1v3.6zm-16.4-0.2q5.4 0.1 10.9 0.2l0.1-3.7q-5.5-0.1-11-0.1zm-16.4-0.3q5.5 0.1 11 0.2v-3.7q-5.5 0-10.9-0.1l-0.1 3.6zm-16.4-0.2q5.5 0.1 11 0.1v-3.6q-5.5-0.1-10.9-0.2l-0.1 3.7zm-16.3-0.3q5.4 0.1 10.9 0.2v-3.7q-5.5-0.1-10.9-0.2v3.7zm-16.4-0.3q5.4 0.1 10.9 0.2l0.1-3.7q-5.5-0.1-11-0.2v3.7zm-16.4-0.4q5.4 0.1 10.9 0.2l0.1-3.6q-5.5-0.1-11-0.2v3.6zm-16.4-0.3q5.4 0.1 10.9 0.2l0.1-3.6q-5.5-0.2-10.9-0.3l-0.1 3.7zm-16.4-0.4q5.4 0.1 10.9 0.2l0.1-3.6q-5.5-0.1-10.9-0.3l-0.1 3.7zm-16.4-0.4q5.4 0.1 10.9 0.2l0.1-3.6q-5.5-0.1-10.9-0.3l-0.1 3.7zm-16.4-0.5q5.4 0.2 10.9 0.3l0.1-3.6q-5.5-0.2-10.9-0.3zm-16.4-0.5q5.4 0.2 10.9 0.3l0.1-3.6q-5.5-0.2-10.9-0.3l-0.1 3.6zm-16.4-0.5q5.4 0.2 10.9 0.4l0.2-3.7q-5.6-0.1-11-0.3zm-16.4-0.5q5.4 0.2 11 0.3l0.1-3.6q-5.5-0.2-10.9-0.4l-0.2 3.7zm-16.3-0.6q5.3 0.2 10.9 0.4l0.1-3.6q-5.5-0.2-10.9-0.4l-0.1 3.6zm-16.4-0.6q5.3 0.2 10.9 0.4l0.1-3.6q-5.5-0.2-10.9-0.4l-0.1 3.6zm-16.4-0.6q5.4 0.2 10.9 0.4l0.1-3.6q-5.5-0.2-10.9-0.4zm-16.4-0.6q5.4 0.2 11 0.4l0.1-3.7q-5.6-0.2-10.9-0.4l-0.2 3.7zm-16.4-0.7q5.4 0.2 11 0.4l0.1-3.6q-5.5-0.2-10.9-0.5l-0.2 3.7zm-16.3-0.7q5.3 0.2 10.9 0.4l0.1-3.6q-5.5-0.2-10.9-0.5zm-16.4-0.7q5.4 0.2 11 0.5l0.1-3.7q-5.6-0.2-10.9-0.5l-0.2 3.7zm-16.3-0.8q5.3 0.2 10.9 0.5l0.2-3.6q-5.7-0.3-11-0.6l-0.1 3.7zm-16.4-0.9q5.2 0.3 10.9 0.6l0.2-3.6q-5.7-0.3-10.9-0.6l-0.2 3.6zm-16.4-0.9q5.2 0.3 10.9 0.6l0.2-3.6q-5.7-0.3-10.9-0.6zm-16.4-1q5.1 0.3 11 0.7l0.2-3.7q-5.9-0.3-10.9-0.6zm-16.4-1q4.8 0.3 10.9 0.7l0.2-3.7q-6.1-0.4-10.9-0.7l-0.2 3.7zm-16.4-1.2c0 0 3.7 0.3 10.9 0.8l0.3-3.6q-5.5-0.4-8.2-0.6-2.7-0.2-2.7-0.2l-0.3 3.6z"/>
					<path id="&lt;Compound Path&gt;" class="s1" d="m1854.8 2576.2q5.2-0.2 10.3-0.4l-0.1-3.7q-5.2 0.3-10.4 0.5l0.2 3.6zm-16.3 0.7q5.4-0.2 10.9-0.4l-0.2-3.7q-5.5 0.2-10.9 0.5l0.2 3.6zm-16.4 0.7q5.4-0.2 10.9-0.5l-0.1-3.6q-5.5 0.2-11 0.5l0.2 3.6zm-16.4 0.7q5.5-0.3 10.9-0.5l-0.1-3.6q-5.5 0.2-10.9 0.4l0.1 3.7zm-16.4 0.6q5.5-0.2 10.9-0.4l-0.1-3.7q-5.5 0.3-10.9 0.5l0.1 3.6zm-16.4 0.7q5.5-0.2 11-0.5l-0.2-3.6q-5.5 0.2-10.9 0.4l0.1 3.7zm-16.3 0.6q5.4-0.2 10.9-0.4l-0.2-3.7q-5.4 0.3-10.9 0.5l0.2 3.6zm-16.4 0.6q5.4-0.2 10.9-0.4l-0.1-3.6q-5.5 0.2-11 0.4l0.2 3.6zm-16.4 0.6q5.4-0.2 10.9-0.4l-0.1-3.6q-5.5 0.2-10.9 0.4l0.1 3.6zm-16.4 0.6q5.5-0.2 10.9-0.4l-0.1-3.6q-5.5 0.2-10.9 0.4l0.1 3.6zm-16.4 0.6q5.5-0.2 10.9-0.4l-0.1-3.6q-5.5 0.2-10.9 0.4l0.1 3.6zm-16.4 0.6q5.5-0.2 11-0.4l-0.2-3.7q-5.4 0.2-10.9 0.4zm-16.4 0.6q5.5-0.2 11-0.4l-0.2-3.6q-5.4 0.1-10.9 0.3l0.1 3.7zm-16.4 0.5q5.5-0.2 11-0.4l-0.2-3.6q-5.4 0.2-10.9 0.4l0.1 3.6zm-16.3 0.5q5.4-0.1 10.9-0.3l-0.1-3.7q-5.5 0.2-11 0.4zm-16.3 0.5q5.4-0.2 10.9-0.3l-0.1-3.7q-5.5 0.2-11 0.3l0.2 3.7zm-16.4 0.5q5.4-0.2 10.9-0.3l-0.1-3.7q-5.5 0.2-10.9 0.3l0.1 3.7zm-16.4 0.5q5.4-0.2 10.9-0.4l-0.1-3.6q-5.5 0.2-10.9 0.3l0.1 3.7zm-16.4 0.4q5.4-0.1 10.9-0.3l-0.1-3.6q-5.5 0.1-10.9 0.3l0.1 3.6zm-16.4 0.5q5.4-0.2 10.9-0.3l-0.1-3.7q-5.5 0.2-10.9 0.3l0.1 3.7zm-16.4 0.4q5.5-0.1 10.9-0.3l-0.1-3.6q-5.4 0.1-10.9 0.3l0.1 3.6zm-16.4 0.4q5.5-0.1 10.9-0.2v-3.7q-5.5 0.2-11 0.3l0.1 3.6zm-16.4 0.4q5.5-0.1 11-0.2l-0.1-3.7q-5.5 0.2-11 0.3l0.1 3.6zm-16.4 0.4q5.5-0.1 11-0.2l-0.1-3.7q-5.5 0.2-10.9 0.3v3.6zm-16.4 0.4q5.5-0.1 11-0.2l-0.1-3.7q-5.5 0.1-10.9 0.3zm-16.4 0.3q5.4-0.1 10.9-0.2l-0.1-3.6q-5.5 0.1-10.9 0.2l0.1 3.6zm-16.4 0.4q5.4-0.1 10.9-0.2l-0.1-3.7q-5.4 0.1-10.9 0.2l0.1 3.7zm-16.4 0.3q5.4-0.1 10.9-0.2l-0.1-3.6q-5.4 0.1-10.9 0.2l0.1 3.6zm-16.4 0.3q5.4-0.1 10.9-0.2v-3.6q-5.5 0.1-11 0.2l0.1 3.6zm-16.4 0.3q5.5-0.1 10.9-0.2v-3.6q-5.5 0.1-11 0.2l0.1 3.6zm-16.4 0.3q5.5-0.1 10.9-0.2v-3.6q-5.5 0.1-10.9 0.2v3.6zm-16.4 0.3q5.5-0.1 11-0.2l-0.1-3.6q-5.5 0.1-10.9 0.1zm-16.4 0.3q5.4-0.1 10.9-0.2l-0.1-3.6q-5.4 0.1-10.9 0.2zm-16.4 0.2q5.5-0.1 11-0.2l-0.1-3.6q-5.5 0.1-10.9 0.1v3.7zm-16.4 0.2q5.5-0.1 11-0.1l-0.1-3.7q-5.5 0.1-10.9 0.2zm-16.4 0.2q5.4-0.1 10.9-0.2v-3.6q-5.5 0.1-11 0.1l0.1 3.7zm-16.4 0.2q5.4-0.1 10.9-0.2v-3.6q-5.5 0.1-10.9 0.1v3.7zm-16.4 0.1q5.4 0 10.9-0.1v-3.6q-5.5 0-10.9 0.1v3.6zm-16.4 0.2q5.4-0.1 10.9-0.1v-3.6q-5.5 0-10.9 0.1v3.6zm-16.4 0.1q5.5 0 10.9-0.1v-3.6q-5.5 0-10.9 0.1v3.6zm-16.4 0.2q5.5-0.1 10.9-0.1v-3.7q-5.5 0.1-10.9 0.1zm-16.4 0.1q5.4 0 10.9-0.1v-3.6q-5.5 0-10.9 0.1v3.6zm-16.4 0.1q5.4 0 10.9-0.1v-3.6q-5.5 0-10.9 0.1zm-16.4 0q5.4 0 10.9 0v-3.7q-5.5 0.1-10.9 0.1zm-16.4 0q5.4 0 10.9 0v-3.6q-5.5 0-10.9 0zm-16.4 0q5.4 0 10.9 0v-3.6q-5.5 0-10.9 0v3.6zm-16.4 0q5.4 0 10.9 0v-3.6q-5.5 0-10.9 0zm-16.4 0q5.2 0 10.4 0 0.2 0 0.5 0v-3.6q-0.3 0-0.5 0-5.2 0-10.4 0zm-16.4-0.1q5.4 0 10.9 0.1v-3.7q-5.5 0-10.9 0v3.6zm-16.4 0q5.4 0 10.9 0v-3.6q-5.5 0-10.9 0v3.6zm-16.4-0.1q5.4 0.1 10.9 0.1v-3.7q-5.5 0-10.9 0v3.6zm-16.4 0q5.4 0 10.9 0v-3.6q-5.4-0.1-10.9-0.1v3.7zm-16.4-0.1q5.4 0 10.9 0l0.1-3.6q-5.5 0-11-0.1zm-16.4-0.1q5.5 0 11 0.1v-3.7q-5.5 0-10.9 0zm-16.4-0.2q5.4 0.1 10.9 0.1v-3.6q-5.5-0.1-10.9-0.1v3.6zm-16.4-0.1q5.4 0 10.9 0.1v-3.7q-5.5 0-10.9-0.1v3.7zm-16.4-0.2q5.4 0 10.9 0.1v-3.6q-5.5-0.1-10.9-0.2v3.7zm-16.4-0.2q5.4 0.1 10.9 0.1l0.1-3.6q-5.5-0.1-11-0.2v3.7zm-16.4-0.2q5.4 0 10.9 0.1l0.1-3.6q-5.5-0.1-11-0.2zm-16.4-0.2q5.5 0.1 11 0.1v-3.6q-5.5-0.1-10.9-0.2l-0.1 3.7zm-16.4-0.3q5.5 0.1 11 0.2v-3.7q-5.5 0-10.9-0.1l-0.1 3.6zm-16.3-0.3q5.4 0.1 10.9 0.2v-3.6q-5.5-0.1-10.9-0.2v3.6zm-16.4-0.3q5.4 0.1 10.9 0.2l0.1-3.6q-5.5-0.1-11-0.2v3.6zm-16.4-0.3q5.4 0.1 10.9 0.2l0.1-3.6q-5.5-0.2-11-0.3v3.7zm-16.4-0.4q5.4 0.1 10.9 0.3l0.1-3.7q-5.5-0.1-10.9-0.2l-0.1 3.6zm-16.4-0.4q5.4 0.2 10.9 0.3l0.1-3.7q-5.5-0.1-10.9-0.2l-0.1 3.6zm-16.4-0.4q5.4 0.2 10.9 0.3l0.1-3.6q-5.5-0.2-10.9-0.3l-0.1 3.6zm-16.4-0.4q5.4 0.1 10.9 0.3l0.1-3.7q-5.5-0.1-10.9-0.3zm-16.4-0.4q5.4 0.1 10.9 0.3l0.1-3.7q-5.5-0.1-10.9-0.3l-0.1 3.7zm-16.4-0.5q5.4 0.2 10.9 0.3l0.2-3.6q-5.6-0.2-11-0.4zm-16.4-0.5q5.4 0.2 11 0.4l0.1-3.7q-5.5-0.1-10.9-0.3l-0.2 3.6zm-16.3-0.5q5.3 0.2 10.9 0.3l0.1-3.6q-5.5-0.2-10.9-0.4l-0.1 3.7zm-16.4-0.6q5.3 0.2 10.9 0.4l0.1-3.7q-5.5-0.1-10.9-0.3l-0.1 3.6zm-16.4-0.6q5.4 0.2 10.9 0.4l0.1-3.6q-5.5-0.2-10.9-0.5zm-16.4-0.6q5.4 0.2 11 0.4l0.1-3.6q-5.6-0.2-10.9-0.4l-0.2 3.6zm-16.4-0.7q5.4 0.3 11 0.5l0.1-3.7q-5.5-0.2-10.9-0.4l-0.2 3.6zm-16.3-0.7q5.3 0.2 10.9 0.5l0.1-3.6q-5.5-0.3-10.9-0.5zm-16.4-0.8q5.4 0.3 11 0.5l0.1-3.6q-5.6-0.3-10.9-0.5l-0.2 3.6zm-16.3-0.8q5.3 0.3 10.9 0.6l0.2-3.7q-5.7-0.3-11-0.5l-0.1 3.6zm-16.4-0.8q5.2 0.2 10.9 0.5l0.2-3.6q-5.7-0.3-10.9-0.6l-0.2 3.7zm-16.4-0.9q5.2 0.3 10.9 0.6l0.2-3.7q-5.7-0.3-10.9-0.6zm-16.4-0.9q5.1 0.3 11 0.6l0.2-3.6q-5.9-0.3-10.9-0.7zm-16.4-1q4.8 0.3 10.9 0.7l0.2-3.6q-6.1-0.4-10.9-0.7l-0.2 3.6zm-16.4-1.1c0 0 3.7 0.3 10.9 0.8l0.3-3.7q-5.5-0.4-8.2-0.6-2.7-0.2-2.7-0.2l-0.3 3.7z"/>
				</g>
				<g id="&lt;Group&gt;">
					<path id="&lt;Path&gt;" class="s0" d="m948.6 451.2c0 0 301.4 64.7 493.6-18.2 7.3-23.7-10.9-44.6-10.9-44.6 0 0-120.3 21.8-278.7 21.8-158.5 0-235-20-235-20z"/>
					<path id="&lt;Path&gt;" class="s1" d="m948.6 451.2l-1.1 5c0.2 0 112.4 24.1 244 24.1 42.1 0 86.3-2.5 129.4-9 43.2-6.6 85.3-17.2 123.3-33.6 1.4-0.6 2.4-1.8 2.8-3.2 1.4-4.5 2-8.9 2-13 0-5.2-0.9-10.1-2.2-14.5-2-6.5-4.8-11.9-7.2-15.7-2.4-3.9-4.4-6.1-4.5-6.2-1.2-1.4-3-2-4.7-1.7h-0.1c-3.5 0.6-122.2 21.8-277.7 21.8-79.1 0-137.6-5-176.3-10-19.4-2.5-33.8-5-43.3-6.8-4.8-1-8.3-1.7-10.7-2.3q-1.7-0.4-2.6-0.6-0.4-0.1-0.6-0.2h-0.2l-0.4 1.6 0.4-1.6-0.4 1.6 0.4-1.6c-2-0.5-4 0.2-5.3 1.7-1.2 1.6-1.4 3.7-0.5 5.5l30.9 61c0.7 1.4 2 2.4 3.5 2.7l1.1-5 4.5-2.3-31-61-4.5 2.3-1.3 4.9c0.4 0.1 77.4 20.2 236.3 20.2 158.9 0 279.4-21.9 279.6-21.9l-0.9-5-3.9 3.3 1.7-1.5-1.7 1.5 1.7-1.5-1.7 1.5c0 0 3 3.5 5.8 8.9 1.5 2.7 2.9 6 3.9 9.5 1.1 3.5 1.7 7.4 1.7 11.4 0 3.2-0.4 6.6-1.5 10l4.9 1.5-2-4.6c-37 15.9-78.3 26.4-120.8 32.9-42.5 6.4-86.1 8.9-127.9 8.9-65.2 0-125.7-6-169.9-12-22.1-3-40.1-6-52.6-8.2-6.2-1.1-11.1-2.1-14.4-2.7q-2.5-0.5-3.7-0.8-0.7-0.1-1-0.2-0.1 0-0.2 0h-0.1l-1 4.9 4.5-2.3z"/>
					<path id="&lt;Compound Path&gt;" class="s1" d="m843 391.8q-2.3-4.8-4.2-9.1l-3.3 1.4q1.8 4.4 4.2 9.3l3.3-1.6zm7.4 14.7q-2.7-5.1-5-9.8l-3.3 1.7q2.3 4.7 5.1 9.8l3.2-1.7zm8.2 14.3q-2.9-4.9-5.5-9.5l-3.2 1.8q2.6 4.6 5.5 9.6zm8.8 13.9q-3.1-4.7-5.9-9.3l-3.1 2q2.8 4.6 5.9 9.3l3.1-2zm9.3 13.5q-3.2-4.5-6.3-9l-3 2.1q3.1 4.5 6.4 9.1l2.9-2.2zm9.9 13.2q-3.4-4.4-6.6-8.8l-3 2.2q3.3 4.4 6.7 8.8l2.9-2.2zm10.5 12.7q-3.7-4.2-7-8.4l-2.9 2.3q3.4 4.2 7.1 8.5l2.8-2.4zm10.9 12.3q-3.8-4.1-7.4-8.2l-2.7 2.5q3.6 4.1 7.4 8.2l2.7-2.5zm11.4 11.8q-3.9-3.9-7.6-7.8l-2.7 2.5q3.8 4 7.7 7.9l2.6-2.6zm11.9 11.3q-4-3.7-7.9-7.5l-2.6 2.7q3.9 3.8 8.1 7.6zm12.4 10.8q-4.3-3.6-8.4-7.2l-2.4 2.8q4.1 3.6 8.4 7.2l2.4-2.8zm12.8 10.3q-4.4-3.4-8.6-6.8l-2.3 2.8q4.2 3.5 8.7 6.9l2.2-2.9zm13.3 9.7q-4.6-3.2-8.9-6.4l-2.2 2.9q4.4 3.3 9 6.5zm13.6 9.1q-4.6-3-9.1-6l-2.1 3q4.6 3.1 9.3 6.1zm14 8.5q-4.8-2.8-9.4-5.6l-1.9 3.1q4.7 2.9 9.5 5.7zm14.4 7.9q-4.9-2.6-9.6-5.2l-1.8 3.2q4.8 2.7 9.7 5.2l1.7-3.2zm14.8 7.2q-5-2.3-9.9-4.8l-1.6 3.3q4.9 2.5 10 4.8l1.5-3.3zm15.1 6.5q-5.1-2.1-10.1-4.3l-1.5 3.4q5 2.2 10.2 4.3l1.4-3.4zm15.3 5.9q-5.2-1.8-10.3-3.8l-1.3 3.4q5.1 2 10.4 3.9l1.2-3.5zm15.6 5.2q-5.3-1.6-10.4-3.4l-1.2 3.5q5.2 1.8 10.5 3.4zm15.8 4.6q-5.3-1.4-10.5-3l-1.1 3.5q5.3 1.6 10.7 3zm15.9 3.9q-5.4-1.2-10.6-2.5l-0.9 3.5q5.3 1.4 10.8 2.6l0.7-3.6zm16.2 3.2q-5.5-1-10.8-2.1l-0.7 3.6q5.3 1.1 10.8 2.1l0.7-3.6zm16.2 2.5q-5.5-0.7-10.8-1.6l-0.6 3.6q5.4 0.9 10.9 1.7l0.5-3.7zm16.3 1.9q-5.5-0.5-10.9-1.2l-0.4 3.7q5.4 0.7 11 1.2l0.3-3.7zm16.4 1.3q-5.5-0.3-10.9-0.8l-0.3 3.7q5.4 0.5 11 0.8l0.2-3.7zm16.5 0.7q-5.6-0.1-11-0.4l-0.2 3.7q5.5 0.3 11.1 0.4l0.1-3.7zm16.4-0.1q-3.4 0.2-6.7 0.3v1.8-1.8q-2.1 0-4.2-0.1l-0.1 3.7q2.2 0 4.3 0h0.1q3.4-0.1 6.7-0.2zm16.4-1.1q-5.4 0.5-10.9 0.8l0.2 3.7q5.6-0.4 11-0.8l-0.3-3.7zm16.4-1.6q-5.4 0.6-10.9 1.1l0.3 3.7q5.6-0.5 11-1.2l-0.4-3.6zm16.3-2.3q-5.4 0.9-10.9 1.6l0.5 3.6q5.6-0.7 11-1.6l-0.6-3.6zm16.2-2.9q-5.4 1.1-10.8 2l0.6 3.6q5.5-0.9 10.9-2l-0.7-3.6zm16-3.5q-5.3 1.2-10.7 2.4l0.8 3.6q5.5-1.2 10.8-2.5zm15.9-4.2q-5.2 1.5-10.6 2.9l0.9 3.6q5.4-1.4 10.7-2.9l-1-3.6zm15.7-4.8q-5.2 1.7-10.5 3.3l1.1 3.5q5.3-1.6 10.5-3.3l-1.1-3.5zm15.5-5.6q-5.1 2-10.3 3.8l1.2 3.5q5.2-1.9 10.4-3.8l-1.3-3.5zm15.2-6.1q-5 2.1-10.1 4.2l1.3 3.4q5.2-2.1 10.2-4.3l-1.4-3.3zm14.9-6.9q-4.9 2.4-9.9 4.6l1.5 3.4q5.1-2.3 10-4.7l-1.6-3.3zm14.6-7.5q-4.8 2.6-9.7 5.1l1.7 3.2q4.9-2.5 9.8-5.1zm14.2-8.2q-4.6 2.8-9.4 5.5l1.8 3.3q4.8-2.8 9.5-5.6l-1.9-3.2zm13.9-8.7q-4.5 3-9.2 5.9l1.9 3.1q4.8-3 9.4-6l-2.1-3zm13.5-9.4q-4.4 3.2-8.9 6.3l2 3q4.7-3.1 9.1-6.4l-2.2-2.9zm13.1-10q-4.3 3.4-8.7 6.7l2.2 2.9q4.5-3.3 8.8-6.7zm12.6-10.6q-4.1 3.6-8.4 7.1l2.4 2.8q4.3-3.5 8.4-7.1zm12.2-11.1q-3.9 3.8-8.1 7.5l2.5 2.7q4.1-3.7 8.1-7.5l-2.5-2.7zm11.7-11.5q-3.8 3.8-7.8 7.7l2.6 2.7q4-4 7.8-7.9zm11.2-12q-3.6 4-7.4 8l2.7 2.6q3.8-4.1 7.4-8.2l-2.7-2.4zm10.7-12.6q-3.4 4.2-7.1 8.4l2.8 2.4q3.7-4.2 7.1-8.4l-2.8-2.4zm10.2-12.9q-3.3 4.3-6.8 8.7l2.9 2.3q3.5-4.5 6.8-8.8l-2.9-2.2zm9.6-13.3q-3 4.3-6.4 8.9l3 2.2q3.4-4.6 6.4-9.1zm9.1-13.7q-2.8 4.5-6 9.2l3.1 2.1q3.2-4.8 6-9.3zm8.5-14.2q-2.6 4.5-5.6 9.5l3.1 1.9q3.1-5 5.6-9.6zm7.8-14.5q-2.1 4.4-5.1 9.8l3.2 1.7q3-5.4 5.2-9.8zm6.9-14.9q0 0 0 0.1c-0.3 0.8-1.8 4.3-4.4 9.9l3.3 1.6c3.1-6.5 4.5-10.3 4.6-10.3l-3.5-1.3z"/>
					<path id="&lt;Compound Path&gt;" class="s1" d="m1421.7 426.8q1-0.2 2.1-0.5l-0.9-3.6q-1.1 0.3-2.1 0.6l0.9 3.5zm-16.1 3.9q5.3-1.2 10.7-2.5l-0.9-3.6q-5.3 1.3-10.6 2.5zm-16.2 3.6q5.4-1.1 10.8-2.3l-0.8-3.6q-5.4 1.2-10.7 2.3l0.7 3.6zm-16.2 3.3q5.4-1.1 10.8-2.2l-0.7-3.6q-5.4 1.1-10.8 2.2zm-16.2 2.9q5.4-0.9 10.8-1.9l-0.6-3.6q-5.5 1-10.9 1.9l0.7 3.6zm-16.3 2.7q5.4-0.9 10.8-1.8l-0.6-3.6q-5.4 0.9-10.8 1.7l0.6 3.7zm-16.4 2.3q5.4-0.7 10.9-1.5l-0.5-3.6q-5.5 0.8-10.9 1.5zm-16.4 2.1q5.4-0.6 10.9-1.4l-0.5-3.6q-5.4 0.7-10.9 1.4zm-16.4 1.8q5.4-0.6 10.9-1.2l-0.4-3.7q-5.5 0.7-10.9 1.2zm-16.5 1.5q5.5-0.4 11-0.9l-0.3-3.7q-5.5 0.5-11 1l0.3 3.6zm-16.5 1.3q5.5-0.4 11-0.8l-0.3-3.7q-5.5 0.5-10.9 0.8zm-16.6 1q5.5-0.3 11.1-0.6l-0.3-3.7q-5.5 0.4-11 0.7l0.2 3.6zm-16.5 0.8q5.5-0.2 11-0.5l-0.1-3.7q-5.6 0.3-11 0.5zm-16.6 0.5q5.5-0.1 11.1-0.3l-0.2-3.7q-5.5 0.2-11 0.3zm-16.5 0.2q5.5 0 11-0.1v-3.7q-5.6 0.1-11 0.1v3.7zm-16.6 0q5.3 0 10.7 0 0.2 0 0.4 0v-3.6q-0.2 0-0.4 0-5.3 0-10.6-0.1l-0.1 3.7zm-16.5-0.3q5.5 0.1 11 0.2l0.1-3.7q-5.6 0-11-0.2l-0.1 3.7zm-16.5-0.5q5.4 0.2 11 0.3l0.1-3.6q-5.6-0.2-11-0.4l-0.1 3.7zm-16.6-0.8q5.5 0.3 11 0.5l0.2-3.6q-5.6-0.3-11-0.6zm-16.5-1q5.4 0.4 11 0.7l0.2-3.7q-5.5-0.3-10.9-0.7l-0.3 3.7zm-16.5-1.3q5.4 0.5 11 0.9l0.3-3.7q-5.6-0.4-11-0.8l-0.3 3.6zm-16.5-1.5q5.4 0.6 11 1.1l0.3-3.7q-5.6-0.5-10.9-1zm-16.5-1.8q5.4 0.6 11 1.2l0.4-3.6q-5.6-0.6-11-1.2l-0.4 3.6zm-16.4-2q5.3 0.7 10.9 1.4l0.5-3.7q-5.6-0.6-11-1.3l-0.4 3.6zm-16.4-2.2q5.3 0.7 10.9 1.5l0.5-3.6q-5.6-0.8-10.9-1.6l-0.5 3.7zm-16.4-2.6q5.2 0.9 10.9 1.8l0.6-3.7q-5.7-0.8-10.9-1.7zm-16.3-2.8q5.1 0.9 10.8 1.9l0.7-3.6q-5.8-1-10.9-1.9l-0.6 3.6zm-16.3-3.1q4.8 0.9 10.8 2.1l0.7-3.6q-6-1.2-10.8-2.1zm-16.2-3.6c0 0 3.8 0.9 10.8 2.4l0.8-3.6c-3.5-0.7-6.2-1.3-8-1.7q-1.4-0.3-2-0.5-0.4-0.1-0.6-0.1-0.1-0.1-0.1-0.1l-0.9 3.6z"/>
					<path id="&lt;Compound Path&gt;" class="s1" d="m1421.6 436.4q1-0.3 2.1-0.6l-0.9-3.5q-1.1 0.2-2.2 0.5l1 3.6zm-16.1 4q5.4-1.3 10.7-2.7l-0.9-3.5q-5.3 1.3-10.6 2.6l0.8 3.6zm-16.1 3.7q5.4-1.2 10.8-2.5l-0.9-3.5q-5.3 1.2-10.7 2.4l0.8 3.6zm-16.2 3.3q5.4-1 10.8-2.2l-0.7-3.6q-5.4 1.2-10.8 2.2l0.7 3.6zm-16.2 3.1q5.4-1 10.8-2l-0.7-3.6q-5.4 1-10.7 2zm-16.4 2.8q5.5-0.9 10.9-1.8l-0.6-3.7q-5.4 1-10.8 1.9zm-16.4 2.5q5.4-0.8 10.9-1.7l-0.6-3.6q-5.4 0.8-10.8 1.6l0.5 3.7zm-16.4 2.2q5.4-0.7 10.9-1.5l-0.5-3.6q-5.4 0.7-10.9 1.4zm-16.4 2q5.4-0.6 10.9-1.3l-0.4-3.6q-5.5 0.6-10.9 1.2zm-16.5 1.7q5.5-0.5 11-1.1l-0.4-3.7q-5.5 0.6-10.9 1.1l0.3 3.7zm-16.5 1.3q5.5-0.4 11-0.9l-0.3-3.6q-5.5 0.5-11 0.9zm-16.5 1.1q5.5-0.3 11-0.7l-0.2-3.7q-5.5 0.4-11 0.7l0.2 3.7zm-16.5 0.8q5.5-0.2 11-0.5l-0.2-3.7q-5.5 0.3-11 0.6l0.2 3.6zm-16.5 0.6q5.4-0.1 11-0.3l-0.2-3.7q-5.5 0.2-10.9 0.4l0.1 3.6zm-16.6 0.4q5.5-0.1 11-0.2v-3.7q-5.6 0.1-11 0.2v3.7zm-16.5 0.1q1.2 0 2.5 0 4.2 0 8.5-0.1v-3.6q-4.3 0-8.5 0-1.3 0-2.5 0v3.7zm-16.6-0.2q5.5 0.1 11 0.1l0.1-3.6q-5.6-0.1-11-0.2zm-16.6-0.4q5.5 0.2 11.1 0.3v-3.6q-5.5-0.2-11-0.3zm-16.5-0.7q5.5 0.3 11 0.5l0.2-3.7q-5.6-0.2-11-0.5zm-16.5-0.9q5.4 0.4 11 0.7l0.2-3.7q-5.6-0.3-11-0.6zm-16.5-1.2q5.4 0.4 11 0.8l0.2-3.6q-5.6-0.4-11-0.8l-0.2 3.6zm-16.5-1.4q5.4 0.5 11 1l0.3-3.7q-5.6-0.4-11-0.9zm-16.5-1.6q5.4 0.5 11 1.1l0.4-3.7q-5.6-0.5-11-1.1l-0.4 3.7zm-16.4-1.9q5.3 0.6 10.9 1.3l0.5-3.7q-5.7-0.6-11-1.3l-0.4 3.7zm-16.4-2.2q5.2 0.8 10.9 1.5l0.5-3.6q-5.7-0.8-10.9-1.5l-0.5 3.6zm-16.4-2.4q5.2 0.9 10.9 1.7l0.5-3.7q-5.7-0.8-10.9-1.6l-0.5 3.6zm-16.4-2.6q5.1 0.8 10.9 1.8l0.6-3.6q-5.8-1-10.8-1.9l-0.7 3.7zm-16.3-3.1q4.8 1 10.9 2.1l0.6-3.6q-6-1.1-10.8-2.1l-0.7 3.6zm-16.2-3.4c0 0 3.8 0.9 10.8 2.3l0.8-3.5c-3.6-0.8-6.2-1.4-8-1.8q-1.4-0.3-2.1-0.4-0.3-0.1-0.5-0.2-0.2 0-0.2 0l-0.8 3.6z"/>
					<path id="&lt;Path&gt;" class="s2" d="m902.6 341.7l-60.3 29.8c0 0 88 68.2 346.1 70.7 159.2 0 303.3-46 346.1-69.8-53.7-29.8-53.7-29.8-53.7-29.8 0 0-162.5 39.1-299.1 39.1-136.6 0-279.1-40-279.1-40z"/>
					<path id="&lt;Path&gt;" class="s1" d="m902.6 341.7l-2.2-4.5-60.3 29.8c-1.6 0.8-2.7 2.3-2.8 4-0.2 1.8 0.5 3.5 1.9 4.5 0.5 0.4 23 17.7 77.8 35.2 54.8 17.6 141.9 35.3 271.3 36.6h0.1c80.1 0 156.3-11.6 217.9-26.1 30.8-7.3 57.9-15.3 80.1-23.1 11.1-3.8 21-7.6 29.4-11.2 8.5-3.6 15.6-7 21.1-10.1 1.7-0.9 2.6-2.6 2.6-4.4 0-1.9-1-3.6-2.6-4.5-53.6-29.8-53.6-29.8-53.6-29.8-1.1-0.6-2.4-0.8-3.6-0.5q0 0-0.5 0.1c-4.8 1.2-46.2 10.9-103 20.4-56.8 9.4-128.8 18.6-194.5 18.6-67.8 0-137.3-10-189.8-20-26.3-4.9-48.2-9.9-63.7-13.7-7.7-1.8-13.7-3.4-17.9-4.5q-3.1-0.8-4.7-1.2-0.8-0.2-1.2-0.4-0.2 0-0.3 0l-0.1-0.1c-1.2-0.3-2.5-0.2-3.6 0.4l2.2 4.5-1.3 4.9c0.1 0 35.8 10.1 88.7 20.1 52.9 10.1 122.9 20.1 191.7 20.1 68.8 0 143.8-9.8 201.6-19.6 57.9-9.9 98.7-19.7 98.7-19.7l-1.2-4.9-2.4 4.4c0 0 0 0 0.8 0.5 2.5 1.4 12.6 6.9 52.8 29.3l2.5-4.4-2.5-4.4c-5.1 2.8-11.9 6.1-20.1 9.6-14.4 6.1-33.2 12.9-55.4 19.6-66.7 20.2-164.3 40-268.1 40-128.6-1.3-214.6-18.9-268.3-36.1-26.9-8.6-45.6-17.1-57.7-23.4-6-3.1-10.3-5.7-13.1-7.5q-2-1.4-3-2-0.5-0.4-0.7-0.6l-0.2-0.1-1.3 1.7 1.3-1.7-1.3 1.7 1.3-1.7-2.9 3.8 2.9-3.8-2.9 3.8 2.9-3.8-3.1 4 2.3 4.6 60.3-29.8-2.3-4.6-1.3 4.9z"/>
					<path id="&lt;Path&gt;" class="s2" d="m901 345.1c0 0 91.3 187.4 283.2 198.5 137.4 0 231.3-89.4 296.6-201 47.8 28.9 53.7 29.8 53.7 29.8 0 0-83 218.9-338.6 227.4-221.2-0.8-322.6-162.7-350.2-229.1 33.5-14.5 55.3-25.6 55.3-25.6z"/>
					<path id="&lt;Path&gt;" class="s1" d="m901 345.1l-4.6 2.2c0.2 0.3 23.2 47.6 70.6 96.4 23.7 24.4 53.5 49.2 89.6 68.7 36.1 19.4 78.5 33.5 127.3 36.3h0.3c34.9 0 67.1-5.7 96.8-16 44.5-15.5 83.3-41.4 117-73.8 33.8-32.5 62.5-71.6 87.2-113.8l-4.4-2.5-2.6 4.3c24 14.5 37.4 22 45 25.9 3.9 2 6.2 3.1 7.7 3.7 0.7 0.3 1.3 0.5 1.7 0.6 0.4 0.2 0.8 0.2 1.1 0.3l0.8-5-4.8-1.8c-0.1 0.4-20.9 54.6-73 109.5-26 27.4-59.8 55-102.8 76.3-43 21.3-95.2 36.3-158.1 38.4l0.1 5 0.1-5c-54.7-0.3-101.9-10.4-142.4-26.5-60.7-24.2-106.4-61.7-139.5-99.5-33.1-37.7-53.6-75.6-63.8-100.1l-4.6 2 2 4.6c33.6-14.5 55.5-25.6 55.6-25.7l-2.3-4.5-4.6 2.2 4.6-2.2-2.3-4.5h-0.1c-1.2 0.7-22.6 11.4-54.9 25.4-2.6 1.1-3.8 4.1-2.7 6.6 7 17 18.7 39.8 35.8 64.7 25.6 37.2 63.3 78.9 115.7 111.5 52.4 32.5 119.5 55.8 203.4 56.1h0.2c64.6-2.2 118.5-17.6 162.8-39.7 33.3-16.5 61.2-36.7 84.3-57.7 34.7-31.5 58.6-64.7 73.9-90.1 15.3-25.4 22-43 22.1-43.2 0.6-1.5 0.4-3.1-0.4-4.4-0.7-1.3-2.1-2.2-3.6-2.4l-0.6 4.1 1-4.1q-0.1 0-0.4 0l-0.6 4.1 1-4.1-0.5 2 0.6-1.9-0.1-0.1-0.5 2 0.6-1.9-0.2 0.4 0.2-0.4-0.2 0.4 0.2-0.4c0 0-0.7-0.3-2.3-1-2.4-1.1-7-3.3-14.8-7.7-7.9-4.4-19.2-10.9-35.1-20.6-1.2-0.7-2.6-0.9-3.9-0.6-1.3 0.4-2.4 1.2-3.1 2.4-32.5 55.4-71.9 105.1-120 140.9-24 17.8-50.2 32.2-78.8 42.2-28.6 9.9-59.7 15.4-93.5 15.4v5.1l0.3-5.1c-47.2-2.7-88.1-16.2-123.1-35-52.5-28.3-91.5-68.5-117.4-101.6-13-16.6-22.6-31.4-29-42-3.2-5.3-5.6-9.6-7.2-12.5q-1.1-2.3-1.7-3.4-0.3-0.6-0.4-0.8-0.1-0.2-0.1-0.2l-0.1-0.1-0.5 0.3 0.5-0.3-0.5 0.3 0.5-0.3c-0.6-1.2-1.6-2.2-2.9-2.6-1.3-0.4-2.7-0.3-3.9 0.3z"/>
				</g>
			</g>
		</g>
	</g>
</svg>